<svg width="2372" height="1554" viewBox="0 0 2372 1554" fill="none" xmlns="http://www.w3.org/2000/svg">
<path d="M2335.31 1063C2460.61 1287.2 2279.31 1727 1129.71 1421.3C553.311 1268 122.711 1613.3 34.0112 1372.3C-172.689 811 671.311 161.7 1140.71 615C1569.71 1029.4 2107.31 655 2335.31 1063Z" stroke="#E4E4E4" stroke-width="4" stroke-miterlimit="10" stroke-dasharray="32.09 32.09"/>
<path d="M2023.21 1551.7H1141.51C1100.51 1551.7 1067.21 1518.4 1067.21 1477.4V212.7C1067.21 171.7 1100.51 138.4 1141.51 138.4H2023.21C2064.21 138.4 2097.51 171.7 2097.51 212.7V1477.4C2097.51 1518.4 2064.21 1551.7 2023.21 1551.7Z" fill="#839793"/>
<path d="M2008.31 195.3H1160.31V1427.2H2008.31V195.3Z" fill="#F6F5F5"/>
<path d="M2008.31 195.3C2008.61 675.7 2024.11 1255 1970.11 1383.3C1732.41 1406.5 1454.11 1413.9 1160.21 1415.3L1272.01 199L2008.31 195.3Z" fill="#E4E4E4"/>
<path d="M1932.21 1344.5C1561.81 1403.8 1314.21 1406.9 1113.41 1392C1139.41 1115 1149.91 654.8 1160.31 195.4L1606.71 196.4L2010.71 223.1C2016.61 699.9 2017.21 1140.4 1932.21 1344.5Z" fill="white"/>
<path d="M1801.21 319.451L1355.14 308.953L1353.54 376.932L1799.61 387.431L1801.21 319.451Z" fill="#005D68"/>
<path d="M1887.28 485.729L1484.9 476.259L1484.17 507.35L1886.55 516.82L1887.28 485.729Z" fill="#005D68"/>
<path d="M1756.8 550.511L1483.28 544.074L1482.55 575.164L1756.07 581.602L1756.8 550.511Z" fill="#D3DFFF"/>
<path d="M1358.09 475.124L1262.82 472.882L1260.57 568.153L1355.84 570.395L1358.09 475.124Z" fill="white" stroke="#005D68" stroke-width="6" stroke-miterlimit="10"/>
<path d="M1278.31 497.9C1281.21 509.2 1286.71 556.3 1310.31 543.1C1315.71 540.1 1320.41 532 1324.41 527.4C1331.71 519.1 1339.01 510.8 1346.41 502.5C1361.01 485.9 1375.71 469.2 1390.31 452.6C1394.11 448.3 1377.51 437.6 1372.81 443C1359.81 457.8 1346.81 472.6 1333.71 487.3C1327.21 494.7 1320.71 502.1 1314.21 509.5C1309.71 514.6 1299.21 531.2 1292.51 532.6C1296.11 533.8 1299.81 535 1303.41 536.1C1306.01 538.2 1301.21 523.2 1301.11 522.8C1299.31 515.8 1297.51 508.9 1295.61 501.9C1294.31 496.3 1276.11 489.4 1278.31 497.9Z" fill="#F7522A"/>
<path d="M1812.19 657.19L1480.79 649.39L1480.06 680.481L1811.46 688.28L1812.19 657.19Z" fill="#005D68"/>
<path d="M1881.58 726.723L1479.2 717.252L1478.47 748.343L1880.85 757.813L1881.58 726.723Z" fill="#D3DFFF"/>
<path d="M1353.99 648.219L1258.72 645.977L1256.48 741.248L1351.75 743.491L1353.99 648.219Z" fill="white" stroke="#005D68" stroke-width="6" stroke-miterlimit="10"/>
<path d="M1274.21 673.8C1277.11 685.1 1282.61 732.2 1306.21 719C1311.61 716 1316.31 707.9 1320.31 703.3C1327.61 695 1334.91 686.7 1342.31 678.4C1356.91 661.8 1371.61 645.1 1386.21 628.5C1390.01 624.2 1373.41 613.5 1368.71 618.9C1355.71 633.7 1342.71 648.5 1329.61 663.2C1323.11 670.6 1316.61 678 1310.11 685.4C1305.61 690.5 1295.11 707.1 1288.41 708.5C1292.01 709.7 1295.71 710.9 1299.31 712C1301.91 714.1 1297.11 699.1 1297.01 698.7C1295.21 691.7 1293.41 684.8 1291.51 677.8C1290.11 672.2 1272.01 665.3 1274.21 673.8Z" fill="#F7522A"/>
<path d="M1879.08 832.12L1476.7 822.65L1475.97 853.741L1878.35 863.211L1879.08 832.12Z" fill="#005D68"/>
<path d="M1655.01 894.7L1475.07 890.465L1474.34 921.556L1654.28 925.791L1655.01 894.7Z" fill="#D3DFFF"/>
<path d="M1349.89 821.415L1254.62 819.172L1252.37 914.444L1347.65 916.686L1349.89 821.415Z" fill="white" stroke="#005D68" stroke-width="6" stroke-miterlimit="10"/>
<path d="M1271.41 848.2C1274.31 859.5 1279.81 906.6 1303.41 893.4C1308.81 890.4 1313.51 882.3 1317.51 877.7C1324.81 869.4 1332.11 861.1 1339.51 852.8C1354.11 836.2 1368.81 819.5 1383.41 802.9C1387.21 798.6 1370.61 787.9 1365.91 793.3C1352.91 808.1 1339.91 822.9 1326.81 837.6C1320.31 845 1313.81 852.4 1307.31 859.8C1302.81 864.9 1292.31 881.5 1285.61 882.9C1289.21 884.1 1292.91 885.3 1296.51 886.4C1299.11 888.5 1294.31 873.5 1294.21 873.1C1292.41 866.1 1290.61 859.2 1288.71 852.2C1287.31 846.6 1269.21 839.7 1271.41 848.2Z" fill="#F7522A"/>
<path d="M1874.98 1005.22L1472.6 995.745L1471.87 1026.84L1874.25 1036.31L1874.98 1005.22Z" fill="#005D68"/>
<path d="M1788.89 1071.12L1470.99 1063.64L1470.25 1094.73L1788.16 1102.21L1788.89 1071.12Z" fill="#D3DFFF"/>
<path d="M1345.89 994.612L1250.62 992.37L1248.37 1087.64L1343.65 1089.88L1345.89 994.612Z" fill="white" stroke="#005D68" stroke-width="6" stroke-miterlimit="10"/>
<path d="M1267.41 1020.3C1270.31 1031.6 1275.81 1078.7 1299.41 1065.5C1304.81 1062.5 1309.51 1054.4 1313.51 1049.8C1320.81 1041.5 1328.11 1033.2 1335.51 1024.9C1350.11 1008.3 1364.81 991.6 1379.41 975C1383.21 970.7 1366.61 960 1361.91 965.4C1348.91 980.2 1335.91 995 1322.81 1009.7C1316.31 1017.1 1309.81 1024.5 1303.31 1031.9C1298.81 1037 1288.31 1053.6 1281.61 1055C1285.21 1056.2 1288.91 1057.4 1292.51 1058.5C1295.11 1060.6 1290.31 1045.6 1290.21 1045.2C1288.41 1038.2 1286.61 1031.3 1284.71 1024.3C1283.31 1018.7 1265.11 1011.8 1267.41 1020.3Z" fill="#F7522A"/>
<path d="M1628.12 1171.45L1468.56 1167.7L1467.83 1198.79L1627.38 1202.55L1628.12 1171.45Z" fill="#005D68"/>
<path d="M1869.41 1245L1467.01 1235.5L1466.31 1266.6C1622.01 1270.3 1820.21 1277.5 1860.71 1271.3C1866.81 1264.4 1870.11 1255.8 1869.41 1245Z" fill="#D3DFFF"/>
<path d="M1343.09 1166.51L1247.82 1164.26L1245.58 1259.54L1340.85 1261.78L1343.09 1166.51Z" fill="white" stroke="#005D68" stroke-width="6" stroke-miterlimit="10"/>
<path d="M1263.41 1190.8C1266.31 1202.1 1271.81 1249.2 1295.41 1236C1300.81 1233 1305.51 1224.9 1309.51 1220.3C1316.81 1212 1324.11 1203.7 1331.51 1195.4C1346.11 1178.8 1360.81 1162.1 1375.41 1145.5C1379.21 1141.2 1362.61 1130.5 1357.91 1135.9C1344.91 1150.7 1331.91 1165.5 1318.81 1180.2C1312.31 1187.6 1305.81 1195 1299.31 1202.4C1294.81 1207.5 1284.31 1224.1 1277.61 1225.5C1281.21 1226.7 1284.91 1227.9 1288.51 1229C1291.11 1231.1 1286.31 1216.1 1286.21 1215.7C1284.41 1208.7 1282.61 1201.8 1280.71 1194.8C1279.31 1189.2 1261.11 1182.3 1263.41 1190.8Z" fill="#F7522A"/>
<path d="M1773.31 146.9V242H1391.31V146.9C1391.31 131.7 1397.51 118 1407.41 108.1C1408.61 106.9 1409.91 105.7 1411.31 104.6C1420.81 96.7 1433.01 92 1446.31 92C1456.31 92 1465.81 89.7 1474.41 85.6C1478.11 83.8 1481.61 81.7 1485.01 79.2C1495.91 71.1 1504.31 59.6 1508.41 46C1512.61 32 1521.31 20.4 1532.61 12.2C1543.41 4.4 1556.61 0 1570.51 0H1594.31C1608.31 0 1621.41 4.5 1632.21 12.2C1643.41 20.3 1652.11 32 1656.41 46C1660.61 59.7 1668.91 71.2 1679.81 79.2C1683.11 81.6 1686.61 83.8 1690.41 85.6C1699.01 89.7 1708.51 92 1718.51 92C1731.81 92 1744.01 96.7 1753.51 104.6C1765.61 114.6 1773.31 129.9 1773.31 146.9Z" fill="#F7522A"/>
<path d="M1804.31 195.3V266H1360.31V195.3H1391.31V242H1773.31V195.3H1804.31Z" fill="#E4E4E4"/>
<path d="M1582.31 89.2C1601.03 89.2 1616.21 74.7836 1616.21 57C1616.21 39.2165 1601.03 24.8 1582.31 24.8C1563.59 24.8 1548.41 39.2165 1548.41 57C1548.41 74.7836 1563.59 89.2 1582.31 89.2Z" fill="white"/>
<path d="M850.311 502.1C836.811 499.5 824.111 476.9 819.711 468.2C818.611 466.1 818.311 463.7 818.711 461.3L824.111 432.7C824.111 432.7 836.511 434.8 835.611 451.4C835.511 453.1 835.911 454.8 836.511 456.4L841.311 468.9L855.411 458L847.711 436.2C847.711 436.2 837.411 439 832.011 437.3C821.011 433.8 835.411 425.3 839.911 424.4C844.411 423.5 854.411 419.9 859.011 427.6C863.511 435.3 866.311 439.9 866.311 439.9C866.311 439.9 871.311 422.6 867.911 384C867.711 382.3 872.111 382.3 873.311 383.5C877.011 387.2 882.811 398.6 883.111 433C883.111 433 883.711 392.8 890.611 388.7C896.311 385.3 899.111 404.9 895.111 438.3C895.111 438.3 902.511 409.4 907.811 409.4C916.811 409.3 907.911 486.5 885.411 509.5L850.311 502.1Z" fill="#F9B384"/>
<path d="M892.711 490.3C892.311 494.1 891.911 497.9 891.411 501.5C889.811 514.3 887.811 525.7 885.511 535.5C885.411 536 885.311 536.4 885.211 536.9C878.411 564.9 877.111 578.7 853.811 575L829.811 547.6L829.611 547.3L827.811 545.3L832.711 530.9L833.311 529L836.911 518.5L837.311 517.1L843.511 499.1L846.011 491.8L892.711 490.3Z" fill="#F9B384"/>
<path d="M446.111 1486.6L440.011 1505.7C398.011 1519.5 373.611 1535.3 372.011 1553.7H493.311L503.011 1489.7C478.511 1495.7 458.811 1491.5 446.111 1486.6Z" fill="#F7862E"/>
<path d="M461.311 1439L446.111 1486.5C458.811 1491.4 478.511 1495.6 503.011 1489.6L509.311 1448.3L461.311 1439Z" fill="#F9B384"/>
<path d="M668.811 1484.5L672.411 1436.1L615.411 1439.1L612.311 1483.7C636.411 1491.4 656.311 1488.4 668.811 1484.5Z" fill="#F9B384"/>
<path d="M737.311 1553.7C735.711 1535.3 714.311 1510 667.311 1504L668.711 1484.4C656.211 1488.3 636.311 1491.3 612.111 1483.6L607.211 1553.6H737.311V1553.7Z" fill="#F7862E"/>
<path d="M622.611 514.6L553.811 515V411H620.511V417.4L620.911 450.4L621.311 503.3L622.611 514.6Z" fill="#F9B384"/>
<path d="M620.911 455.4C608.511 468.4 576.311 453.7 562.711 439.4L620.611 422.4L620.911 455.4Z" fill="#E28B6D"/>
<path d="M636.811 387C636.811 394.7 636.311 402.7 635.011 410.4C631.611 431.4 622.811 449.5 602.311 450C553.911 451.4 540.111 423.7 531.011 401.1C521.911 378.4 536.711 323.9 536.711 323.9L599.311 317.7L633.711 345.9C633.711 346 637.011 365.1 636.811 387Z" fill="#F9B384"/>
<path d="M532.911 388.2C532.911 388.2 546.711 387.6 549.111 351.9C573.811 360.2 591.811 352.6 606.111 336.2C618.311 352.3 652.411 357.4 664.011 324.4C672.311 300.6 649.311 265.1 615.811 286.6C583.011 270 533.211 271.2 518.811 311.8C518.811 311.8 469.011 334.8 521.711 385.3C522.911 386.3 532.911 388.2 532.911 388.2Z" fill="#F7522A"/>
<path d="M723.311 888.3L685.311 1463H596.011L618.311 905.4L632.011 899L723.311 888.3Z" fill="#F7522A"/>
<path d="M490.711 809.7L428.011 1463H525.311L618.011 920.4L723.311 888.4L728.011 772.4L493.311 767L490.711 809.7Z" fill="#F7862E"/>
<path opacity="0.6" d="M504.611 811.1C557.811 830.2 682.511 808.4 708.411 781.8L690.011 745L484.811 772.3L504.611 811.1Z" fill="#F7522A"/>
<path d="M703.711 773C702.011 773.7 700.211 774.5 698.411 775.2C678.511 783.3 655.911 790.4 631.811 795C617.411 797.8 602.411 799.8 587.111 800.5C564.111 801.7 540.411 800.1 516.911 794.8L546.711 517L550.311 483.1C550.311 483.1 589.311 531.1 632.311 478.1L703.711 773Z" fill="white"/>
<path opacity="0.3" d="M587.111 800.4C564.111 801.6 540.411 800 516.911 794.7L546.711 516.9L557.311 501.5C583.611 565.5 610.511 707 587.111 800.4Z" fill="#F7862E"/>
<path d="M553.811 472C583.411 597.8 595.611 727.3 552.011 871C519.611 883.3 484.411 883.2 446.711 872.3L456.011 611L236.311 762L223.011 679.7C307.411 599 453.411 477 553.811 472Z" fill="#005D68"/>
<path opacity="0.3" d="M698.411 775.1C678.511 783.2 655.911 790.3 631.811 794.9C618.611 719 615.611 594.3 626.411 538L698.411 775.1Z" fill="#F7862E"/>
<path opacity="0.6" d="M885.511 535.6C885.411 536.1 885.311 536.5 885.211 537C878.411 565 877.111 578.8 853.811 575.1L829.811 547.7L829.611 547.4L832.711 531L833.311 529.1L836.911 518.6L837.311 517.2L885.511 535.6Z" fill="#E28B6D"/>
<path d="M881.311 561C881.311 561 822.311 686 787.311 689C753.411 691.9 737.311 659 737.311 659L761.311 841.7C733.111 854.9 702.311 861.3 666.611 855C634.911 752 622.911 618.8 620.511 470.5C646.211 472.1 697.011 474.3 715.311 486C748.011 507 788.311 582 788.311 582L835.311 518L881.311 561Z" fill="#005D68"/>
<path d="M162.111 384.9C162.111 384.9 165.711 325.1 171.811 327.9C177.911 330.7 190.111 382.7 190.111 382.7L177.011 403.8L162.111 384.9Z" fill="#005D68"/>
<path d="M341.611 1464.7L343.411 1484.4C346.511 1519.1 320.911 1549.8 286.111 1553L281.011 1553.5C246.311 1556.6 215.611 1531 212.411 1496.2L210.611 1476.5L341.611 1464.7Z" fill="#F7522A"/>
<path d="M256.042 511.745L125.167 523.503L210.785 1476.48L341.659 1464.72L256.042 511.745Z" fill="#839793"/>
<path opacity="0.3" d="M212.094 496.401L165.581 500.58L240.631 1335.93L287.144 1331.75L212.094 496.401Z" stroke="#005D68" stroke-width="8" stroke-miterlimit="10"/>
<path d="M341.611 1464.7L210.811 1476.5L207.311 1438.1L204.911 1411.4L197.511 1329.4L328.411 1317.6L335.811 1399.6L338.211 1426.3L341.611 1464.7Z" fill="#005D68"/>
<path d="M335.856 1399.69L204.982 1411.45L207.381 1438.14L338.255 1426.38L335.856 1399.69Z" fill="#839793"/>
<path d="M125.111 523.5L161.511 377.8C161.511 377.8 174.011 383.4 189.311 374L256.011 511.7L125.111 523.5Z" fill="#F7522A"/>
<path d="M540.211 382.2C539.611 380.1 529.811 377.1 527.711 376.5C524.411 375.6 520.711 375.1 517.511 376.6C505.711 381.9 507.311 398.8 513.411 407.7C516.911 412.7 521.911 416.6 527.811 418.3C529.911 418.9 550.311 419.2 549.411 415.9L540.211 382.2Z" fill="#F9B384"/>
<path d="M168.311 722C165.211 712.4 155.111 707 145.611 710.3C130.711 715.4 117.711 724.2 115.711 739C113.911 752.5 120.611 795.7 150.811 801.2L148.311 779C148.311 779 166.811 774.7 170.511 766.7C173.211 761.1 173.311 737.7 168.311 722Z" fill="#F9B384"/>
<path d="M728.111 573.6C729.711 583 731.011 592.5 732.311 602C733.611 611.5 734.711 621 735.911 630.5L739.011 659C739.911 668.5 740.811 678.1 741.411 687.6L739.811 687.8C738.211 678.4 736.811 668.9 735.511 659.4L731.911 630.9C730.911 621.4 729.711 611.9 728.911 602.4C728.011 592.9 727.111 583.4 726.511 573.8L728.111 573.6Z" fill="#F7862E"/>
<path d="M459.111 572.1C459.111 582.7 458.811 593.3 458.511 603.9C458.211 614.5 457.711 625.1 457.311 635.7L455.611 667.4C454.911 678 454.211 688.5 453.111 699.1L451.511 699C451.511 688.4 451.711 677.8 452.011 667.2L453.311 635.4C453.911 624.8 454.411 614.2 455.111 603.7C455.811 593.1 456.511 582.6 457.511 572L459.111 572.1Z" fill="#F7862E"/>
<path d="M588.711 381.2C589.511 385 588.011 388.5 585.211 389.2C582.411 389.8 579.511 387.3 578.711 383.5C577.911 379.7 579.411 376.2 582.211 375.5C584.911 374.8 587.911 377.4 588.711 381.2Z" fill="#F7522A"/>
<path d="M628.611 376.5C628.411 380.4 626.011 383.4 623.211 383.3C620.411 383.2 618.211 380 618.411 376.1C618.611 372.2 621.011 369.2 623.811 369.3C626.611 369.4 628.711 372.6 628.611 376.5Z" fill="#F7522A"/>
<path d="M606.411 379.7C607.811 383 607.611 386.6 608.411 389.3C608.911 390.7 609.511 391.9 610.311 392.6C611.111 393.3 612.411 393.8 614.111 394.4C615.811 395.1 617.611 396.2 618.811 398C620.111 399.7 620.511 402.6 619.311 404.5C618.211 406.4 616.711 407.5 615.411 408.5C614.011 409.4 612.711 410.4 611.311 411.3L610.311 410.1C611.311 408.8 612.511 407.6 613.611 406.4C614.711 405.2 615.811 404.1 616.211 403C617.011 401.1 615.211 399.1 612.611 398.1C611.211 397.5 609.311 396.9 607.711 395.3C606.211 393.8 605.411 391.8 605.111 390C604.411 386.3 605.211 383.1 604.811 380L606.411 379.7Z" fill="#E28B6D"/>
<path d="M569.611 371C570.211 368.6 571.611 366.4 573.711 364.8C575.711 363.1 578.311 362.2 581.011 362.1C586.311 361.8 591.511 364.8 593.611 369.2L592.411 370.2C588.911 367.5 585.111 366 581.211 366.1C577.311 366.2 573.711 368.2 571.111 371.7L569.611 371Z" fill="#F7522A"/>
<path d="M610.911 366.1C611.511 364.2 612.511 362.5 614.011 361C615.511 359.5 617.511 358.5 619.711 358.2C624.011 357.5 628.611 359.7 630.311 363.5L629.011 364.4C626.211 362.5 623.111 361.7 620.211 362.1C618.811 362.3 617.411 362.8 616.011 363.6C614.711 364.4 613.411 365.6 612.111 366.8L610.911 366.1Z" fill="#F7522A"/>
<path d="M588.811 418.4C595.811 429.3 605.111 430.5 612.311 419L588.811 418.4Z" fill="white"/>
<path opacity="0.4" d="M637.011 384.4C637.011 392.1 636.311 402.8 635.011 410.5C630.211 408.9 626.611 404.4 626.611 399C626.711 392.9 631.311 385.3 637.011 384.4Z" fill="#FC8879"/>
<path opacity="0.4" d="M571.711 419C578.836 419 584.611 413.225 584.611 406.1C584.611 398.976 578.836 393.2 571.711 393.2C564.587 393.2 558.811 398.976 558.811 406.1C558.811 413.225 564.587 419 571.711 419Z" fill="#FC8879"/>
<path d="M531.711 395C529.211 393.3 526.811 391.4 524.511 390.3C523.311 389.7 522.311 389.4 521.311 389.5C520.311 389.6 519.211 390.1 518.011 391L516.711 390.2C517.211 388.6 518.411 386.8 520.511 386.1C522.611 385.4 524.711 386 526.311 386.8C529.511 388.5 531.711 391.1 533.011 394.2L531.711 395Z" fill="#E28B6D"/>
<path opacity="0.6" d="M170.611 766.7L152.011 823.1L148.211 779C159.711 776.5 166.011 771.9 170.611 766.7Z" fill="#6F3428"/>
</svg>
