<svg viewBox="0 0 452 297" fill="none" xmlns="http://www.w3.org/2000/svg">
<path d="M444.25 69.9389L437.238 104.114L432.661 99.685L424.911 105.221L419.006 97.8397L405.794 107.509L394.427 88.5394L381.805 95.9944L376.786 89.0561L360.769 98.0611L355.897 87.7275L367.19 33.2545L427.495 45.7287L444.25 69.9389Z" fill="#EBEBEB"/>
<path d="M427.495 45.7288L444.324 69.939L423.361 65.5841L427.495 45.7288Z" fill="#DBDBDB"/>
<path d="M435.688 110.978L425.354 161.17L344.161 144.415L354.421 94.5919L359.219 104.926L375.31 95.9205L380.329 102.785L392.951 95.4039L404.244 114.373L417.53 104.704L423.435 112.011L431.185 106.549L435.688 110.978Z" fill="#EBEBEB"/>
<path d="M319.434 105.073L236.691 110.24L230.122 3.95124L291.533 0.113037L314.12 19.0826L319.434 105.073Z" fill="#EBEBEB"/>
<path d="M291.534 0.113037L314.12 19.0826L292.788 20.4112L291.534 0.113037Z" fill="#DBDBDB"/>
<path d="M268.652 71.6366L268.357 69.2746C267.545 64.3292 268.873 58.7195 273.228 52.9622C277.14 47.7954 279.207 44.1048 278.985 39.8976C278.69 35.1736 275.59 32.2211 269.759 32.4426C266.438 32.664 262.821 33.9188 260.533 35.8379L257.949 30.1544C260.902 27.7925 266.068 26.021 271.014 25.7257C281.643 25.1352 286.81 31.4092 287.252 38.4951C287.621 44.7691 284.374 49.4931 280.166 55.0289C276.328 60.0481 275.073 64.2554 275.664 68.9055L275.885 71.3413L268.652 71.6366ZM267.323 84.7012C267.102 81.3059 269.316 78.7225 272.564 78.5749C275.812 78.4272 278.174 80.6416 278.321 84.1107C278.469 87.3584 276.55 89.9418 273.081 90.1633C269.833 90.3109 267.471 87.9489 267.323 84.7012Z" fill="#DBDBDB"/>
<path d="M61.6103 53.5528L53.2695 49.7885L52.0886 52.3719C51.7195 53.11 50.9814 53.6267 50.1695 53.6267C49.7266 53.6267 49.2837 53.7005 48.8408 53.7743C48.0289 53.9219 47.217 53.5528 46.7741 52.8885L45.1503 50.6004L37.6953 55.9148L39.3191 58.203C39.762 58.8673 39.8358 59.753 39.4668 60.4911C39.2453 60.934 39.0977 61.3031 38.8763 61.7459C38.581 62.4841 37.9167 63.0746 37.1048 63.1484L34.2999 63.4436L35.1857 72.5224L37.9905 72.2272C38.8025 72.1534 39.6144 72.5224 40.0573 73.2606C40.2049 73.482 40.2787 73.6296 40.4263 73.851C40.5739 73.9987 40.7216 74.2201 40.8692 74.3677C41.3859 75.032 41.5335 75.844 41.1644 76.5821L39.9834 79.1655L48.3242 82.9299L49.5052 80.3465C49.8742 79.6083 50.6123 79.0917 51.4242 79.0917C51.8671 79.0917 52.31 79.0179 52.7529 78.944C53.5648 78.7964 54.3767 79.1655 54.8196 79.8298L56.4434 82.1179L63.8984 76.8035L62.2746 74.5153C61.8317 73.851 61.7579 72.9653 62.1269 72.2272C62.3484 71.8581 62.496 71.4153 62.7174 70.9724C63.0127 70.2343 63.677 69.6438 64.4889 69.57L67.2937 69.2747L66.408 60.1959L63.6032 60.4911C62.7912 60.565 61.9793 60.1959 61.5364 59.4578C61.3888 59.2363 61.315 59.0887 61.1674 58.8673C61.0198 58.7197 60.8721 58.4982 60.7245 58.3506C60.2078 57.6863 60.0602 56.8744 60.4293 56.0624L61.6103 53.5528ZM56.8863 61.9674C59.3221 65.3627 58.5102 70.0128 55.1886 72.4486C51.7933 74.8844 47.1432 74.0725 44.7074 70.751C42.2716 67.3556 43.0835 62.7055 46.4051 60.2697C49.8004 57.8339 54.4505 58.6458 56.8863 61.9674Z" fill="#F7522A"/>
<path d="M437.976 174.309L432.44 177.482L433.399 179.18C433.695 179.697 433.695 180.287 433.326 180.804C433.178 181.099 432.957 181.321 432.883 181.616C432.588 182.133 432.071 182.428 431.554 182.428H429.561V188.849H431.554C432.145 188.849 432.661 189.145 432.883 189.661C433.03 189.957 433.178 190.252 433.326 190.473C433.621 190.99 433.695 191.58 433.399 192.097L432.44 193.795L437.976 196.969L438.935 195.271C439.231 194.754 439.747 194.459 440.338 194.533C440.485 194.533 440.633 194.533 440.781 194.533C440.928 194.533 441.076 194.533 441.224 194.533C441.814 194.533 442.331 194.754 442.626 195.271L443.585 196.969L449.121 193.795L448.162 192.097C447.867 191.58 447.867 190.99 448.236 190.473C448.383 190.178 448.605 189.957 448.679 189.661C448.974 189.145 449.49 188.849 450.007 188.849H452V182.428H450.007C449.417 182.428 448.9 182.133 448.679 181.616C448.531 181.321 448.383 181.025 448.236 180.804C447.94 180.287 447.867 179.697 448.162 179.18L449.121 177.482L443.585 174.309L442.626 176.006C442.331 176.523 441.814 176.744 441.224 176.744C441.076 176.744 440.928 176.744 440.781 176.744C440.633 176.744 440.485 176.744 440.338 176.744C439.747 176.744 439.231 176.523 438.935 176.006L437.976 174.309ZM440.854 180.435C443.733 180.435 446.095 182.797 446.095 185.676C446.095 188.554 443.733 190.916 440.854 190.916C437.976 190.916 435.614 188.554 435.614 185.676C435.614 182.797 437.902 180.435 440.854 180.435Z" fill="#839793"/>
<path d="M78.4393 26.3162L73.3463 30.2283L74.5273 31.7783C74.8963 32.2212 74.8963 32.8855 74.6749 33.4022C74.5273 33.6974 74.3796 33.9927 74.3058 34.2879C74.0844 34.8046 73.6415 35.2475 73.051 35.3213L71.1319 35.5427L71.9439 41.8905L73.863 41.6691C74.4535 41.5953 74.9701 41.8905 75.3392 42.3334C75.4868 42.6286 75.7083 42.8501 75.9297 43.0715C76.2987 43.5144 76.4464 44.1048 76.2249 44.6215L75.4868 46.4668L81.3918 48.9026L82.1299 47.0573C82.3513 46.5406 82.868 46.1716 83.4585 46.1716C83.6061 46.1716 83.7537 46.1716 83.9013 46.0978C84.049 46.0978 84.1966 46.024 84.3442 46.024C84.9347 45.9501 85.4514 46.0978 85.8205 46.6144L87.0014 48.1645L92.0944 44.2525L90.9135 42.7024C90.5444 42.2596 90.5444 41.5953 90.7658 41.0786C90.9135 40.7833 91.0611 40.4881 91.1349 40.1928C91.3563 39.6762 91.7992 39.2333 92.3897 39.1595L94.3088 38.938L93.4969 32.5902L91.5778 32.8117C90.9873 32.8855 90.4706 32.5902 90.1015 32.1474C89.9539 31.8521 89.7325 31.6307 89.511 31.4092C89.142 30.9664 88.9944 30.3759 89.2158 29.8592L89.9539 28.0139L84.049 25.5781L83.3109 27.4234C83.0894 27.9401 82.5727 28.3092 81.9823 28.3092C81.8346 28.3092 81.687 28.3092 81.5394 28.383C81.3918 28.383 81.2441 28.4568 81.0965 28.4568C80.506 28.5306 79.9155 28.383 79.6203 27.8663L78.4393 26.3162ZM82.0561 31.9997C84.9347 31.6307 87.5919 33.6236 87.961 36.5022C88.33 39.3809 86.3371 42.0381 83.4585 42.4072C80.5798 42.7762 77.9226 40.7833 77.5536 37.9047C77.1845 35.026 79.1774 32.3688 82.0561 31.9997Z" fill="#F7862E"/>
<path d="M40.4263 192.835C40.7216 185.676 40.5739 178.516 40.1311 171.43C39.1715 156.741 36.7357 142.127 33.4142 127.733C31.5689 119.688 29.207 111.716 26.845 103.745C26.7712 103.523 26.4021 103.597 26.4759 103.818C33.9309 131.793 39.9834 160.653 39.6144 189.735C39.4668 197.854 38.581 205.9 37.7691 213.945C37.7691 214.167 38.1382 214.241 38.1382 214.019C39.6882 207.155 40.1311 199.921 40.4263 192.835Z" fill="#005D68"/>
<path d="M26.4759 103.818C26.4759 103.818 15.2566 132.384 17.7661 139.1C20.2757 145.817 25.5164 147.22 25.5164 147.22C25.5164 147.22 18.6519 157.037 23.4496 166.263C28.2474 175.49 38.9501 175.047 39.6882 185.528C39.6144 185.528 40.2049 141.831 26.4759 103.818Z" fill="#005D68"/>
<path d="M38.3596 167.518C38.3596 167.444 38.3596 167.444 38.3596 167.37C36.8095 147.958 33.3404 128.619 27.4355 109.945C27.4355 109.871 27.3617 109.871 27.3617 109.945C29.576 118.286 31.5689 126.7 33.2666 135.115C31.7904 133.638 29.8713 132.753 27.8783 132.088C27.8045 132.088 27.8045 132.162 27.8783 132.162C29.9451 133.048 31.938 134.081 33.4142 135.853C33.7095 137.477 34.0785 139.174 34.3738 140.798C31.8642 137.993 28.395 136.591 24.8521 135.262C24.7782 135.262 24.7782 135.336 24.8521 135.336C28.4688 136.812 32.0856 138.731 34.5952 141.832C35.4809 146.555 36.2191 151.353 36.8834 156.077C35.0381 154.158 32.7499 152.829 30.1665 152.239C30.0927 152.239 30.0189 152.313 30.0927 152.387C32.7499 153.125 35.0381 154.675 36.8834 156.741C36.8834 156.741 36.8834 156.741 36.9572 156.741C37.1786 158.439 37.4 160.137 37.6215 161.761C36.2191 160.58 34.669 159.62 32.8975 158.956C32.8237 158.956 32.8237 159.03 32.8975 159.03C34.669 159.768 36.2191 160.875 37.6215 162.13H37.6953C37.9167 163.754 38.0643 165.304 38.212 166.927C35.6286 163.827 32.4547 161.539 28.6903 160.137C28.6165 160.137 28.5426 160.211 28.6165 160.284C32.307 161.908 35.5547 164.418 37.9905 167.518C38.0643 167.592 38.1382 167.592 38.212 167.592C38.4334 170.028 38.6548 172.537 38.8763 174.973C38.8763 174.973 38.9501 175.047 38.9501 174.973C38.7287 172.537 38.581 170.028 38.3596 167.518Z" fill="white"/>
<path d="M29.3546 129.284C27.4355 127.955 24.9259 127.364 22.5639 127.143C22.4901 127.143 22.4901 127.217 22.5639 127.217C24.9997 127.586 26.9926 128.472 29.2808 129.431C29.3546 129.505 29.4284 129.357 29.3546 129.284Z" fill="white"/>
<path d="M30.6832 159.546C29.1331 158.587 27.3617 158.07 25.5902 157.775C25.5164 157.775 25.5164 157.849 25.5902 157.849C27.3617 158.144 28.9855 158.808 30.6094 159.62C30.6832 159.694 30.757 159.546 30.6832 159.546Z" fill="white"/>
<path d="M70.0248 139.617C65.3008 142.939 60.7983 146.703 57.0339 150.984C52.9743 155.56 49.948 160.727 47.8813 166.485C43.6002 178.294 41.312 190.99 41.0906 203.538C40.943 210.55 41.6073 217.488 43.0835 224.353C43.1573 224.574 43.5264 224.501 43.4526 224.279C41.6073 212.248 41.6811 199.921 43.674 187.89C45.5931 176.08 48.6194 163.237 56.1482 153.641C60.2078 148.401 65.3008 144.267 70.3938 140.06C70.6153 139.765 70.32 139.396 70.0248 139.617Z" fill="#005D68"/>
<path d="M42.7145 194.976C42.7145 194.976 46.5527 188.48 52.2362 182.871C57.8459 177.261 62.6436 173.275 63.3079 169.511C64.046 165.82 57.6982 163.015 57.6982 163.015C57.6982 163.015 65.5223 164.418 67.589 161.17C69.7295 157.922 70.7629 138.953 70.7629 138.953C70.7629 138.953 56.5911 149.065 50.0218 163.237C43.3788 177.482 42.7145 194.976 42.7145 194.976Z" fill="#005D68"/>
<path d="M65.8175 143.824C59.8388 149.656 53.86 155.93 50.3171 163.606C49.1361 166.263 48.1027 168.994 47.217 171.799C47.0694 172.39 46.8479 172.906 46.7003 173.497V173.571C44.9288 179.328 43.7478 185.233 42.6407 191.064C42.6407 191.138 42.7145 191.138 42.7145 191.064C43.305 188.111 43.9693 185.159 44.7812 182.133H44.855C46.036 181.616 47.2908 181.321 48.5456 181.173C48.6194 181.173 48.6194 181.026 48.5456 181.026C47.2908 181.099 46.036 181.321 44.855 181.69C45.5193 179.033 46.2574 176.302 47.1432 173.718C49.8742 173.054 52.7529 172.685 55.5577 172.611V172.537C52.7529 172.39 50.0218 172.685 47.2908 173.275C47.4384 172.832 47.586 172.39 47.7337 171.947C49.579 171.504 51.4242 171.209 53.3433 170.987V170.913C51.4981 170.987 49.6528 171.135 47.8813 171.578C48.6194 169.29 49.5051 167.075 50.3909 164.861C51.129 163.016 52.0885 161.318 53.0481 159.694C54.5981 159.325 56.0006 159.03 57.5506 158.882C57.6244 158.882 57.6244 158.808 57.5506 158.808C56.1482 158.734 54.672 158.808 53.3433 159.251C54.0815 158.07 54.8934 156.889 55.7053 155.708C58.8792 154.97 62.1269 154.38 65.3746 154.97C65.4485 154.97 65.4485 154.896 65.3746 154.896C62.2746 154.084 59.1745 154.527 56.1482 155.191C56.5173 154.749 56.8125 154.306 57.1816 153.863C59.1007 153.272 61.0936 152.977 63.0865 152.903C63.1603 152.903 63.1603 152.83 63.0865 152.83C61.2412 152.682 59.3221 152.829 57.5506 153.346C60.2078 150.098 63.0865 146.998 65.9651 143.972C66.1128 143.751 65.9651 143.677 65.8175 143.824Z" fill="white"/>
<path d="M65.6699 156.741C64.7103 156.668 63.8246 156.52 62.865 156.668C62.7174 156.668 62.7912 156.889 62.865 156.889C63.8246 156.889 64.7103 156.815 65.6699 156.889C65.7437 156.889 65.7437 156.741 65.6699 156.741Z" fill="white"/>
<path d="M55.4839 175.121C54.0077 175.121 52.5314 175.49 51.129 176.006V176.08C52.6052 175.711 54.0077 175.563 55.4839 175.342C55.6315 175.342 55.6315 175.121 55.4839 175.121Z" fill="white"/>
<path d="M52.4576 168.773C51.8671 168.773 51.2028 168.847 50.6123 168.92C50.5385 168.92 50.5385 168.994 50.6123 168.994C51.2028 168.994 51.8671 168.994 52.4576 168.92C52.5314 168.92 52.5314 168.773 52.4576 168.773Z" fill="white"/>
<path d="M1.15852 159.694C5.73484 161.244 10.2374 163.311 14.297 165.894C18.6519 168.625 22.2687 172.168 25.2949 176.302C31.4951 184.864 36.2929 194.607 39.393 204.719C41.0906 210.403 42.1978 216.16 42.5668 222.065C42.5668 222.286 42.2716 222.286 42.2716 222.065C40.943 211.879 38.0643 201.914 33.7095 192.614C29.4284 183.535 23.9663 173.792 15.6994 167.739C11.1969 164.418 6.10391 162.277 1.0109 160.063C0.715656 159.989 0.937089 159.62 1.15852 159.694Z" fill="#005D68"/>
<path d="M36.0714 198.224C36.0714 198.224 31.4213 193.869 25.5902 190.621C19.7591 187.373 14.9613 185.233 13.4851 182.354C12.0088 179.475 16.5852 175.785 16.5852 175.785C16.5852 175.785 10.6064 178.737 8.09682 176.597C5.58723 174.456 0.42041 159.325 0.42041 159.325C0.42041 159.325 14.2232 164.27 22.8591 174.161C31.4951 184.199 36.0714 198.224 36.0714 198.224Z" fill="#005D68"/>
<path d="M35.3333 195.123C28.395 182.133 19.2424 170.397 6.62059 162.72C9.94211 164.861 13.0422 167.296 15.847 169.954C13.2636 169.88 10.6802 170.323 8.39207 171.504C8.31826 171.504 8.39207 171.578 8.46588 171.578C10.9755 170.692 13.4113 170.175 16.0685 170.323C16.1423 170.323 16.1423 170.323 16.1423 170.323C16.5852 170.766 17.028 171.208 17.4709 171.651C16.1423 171.725 14.8137 171.873 13.4851 172.168V172.242C14.8875 171.947 16.2899 171.873 17.6923 171.873C19.9805 174.161 22.1948 176.671 24.1878 179.254C23.302 179.106 22.2687 179.18 21.3829 179.475C21.3091 179.475 21.3091 179.623 21.3829 179.549C22.4163 179.402 23.3758 179.475 24.3354 179.475C24.7044 179.992 25.0735 180.435 25.4426 180.952C22.6377 180.804 19.8329 181.025 17.028 181.764C16.9542 181.764 17.028 181.837 17.028 181.837C19.9067 181.247 22.7115 181.099 25.664 181.247C26.0331 181.69 26.3283 182.206 26.6974 182.649C24.9997 182.575 23.3758 182.797 21.6782 183.24C21.6044 183.24 21.6044 183.387 21.6782 183.314C23.3758 182.945 25.0735 182.797 26.845 182.945C28.3212 185.011 29.7236 187.078 31.126 189.219C30.3879 189.071 29.6498 189.145 28.9117 189.366C28.8379 189.366 28.9117 189.44 28.9117 189.44C29.7236 189.366 30.4617 189.44 31.2737 189.588C32.5285 191.507 33.7095 193.426 34.8166 195.345C35.1857 195.419 35.4809 195.271 35.3333 195.123Z" fill="white"/>
<path d="M24.6306 184.347C23.302 184.199 21.8996 184.421 20.6448 184.864V184.937C21.9734 184.716 23.302 184.568 24.6306 184.495C24.7044 184.495 24.7044 184.347 24.6306 184.347Z" fill="white"/>
<path d="M12.5993 168.551C12.0088 168.477 11.3445 168.551 10.754 168.625C10.6802 168.625 10.6802 168.773 10.754 168.699C11.3445 168.625 11.935 168.625 12.5993 168.625C12.6731 168.699 12.6731 168.551 12.5993 168.551Z" fill="white"/>
<path d="M53.86 241.108H22.7115L27.1402 208.557L28.3212 200.216H48.3242L49.4313 208.557L53.86 241.108Z" fill="#DBDBDB"/>
<path d="M49.4313 208.557H27.1402L28.3212 200.216H48.3242L49.4313 208.557Z" fill="#C7C7C7"/>
<path d="M51.2028 197.264H25.4426V204.35H51.2028V197.264Z" fill="#DBDBDB"/>
<path d="M228.794 296.098C345.667 296.098 440.412 285.721 440.412 272.921C440.412 260.121 345.667 249.744 228.794 249.744C111.92 249.744 17.1757 260.121 17.1757 272.921C17.1757 285.721 111.92 296.098 228.794 296.098Z" fill="#303030"/>
<path d="M179.561 269.083C177.864 269.673 128.557 269.821 126.638 268.64C125.9 268.197 125.457 261.037 125.162 252.327C125.088 250.482 125.014 248.489 125.014 246.57L121.029 220.293L154.022 220.072L157.123 246.349L156.975 252.106C156.975 252.106 175.871 260.52 177.79 261.997C179.709 263.547 181.259 268.492 179.561 269.083Z" fill="#EB9481"/>
<path d="M179.561 269.083C177.864 269.673 128.557 269.821 126.638 268.64C125.753 268.123 125.31 257.642 125.014 246.57L157.122 246.349L156.975 252.106C156.975 252.106 175.871 260.52 177.79 261.997C179.709 263.547 181.259 268.492 179.561 269.083Z" fill="white"/>
<path d="M179.561 269.083C177.864 269.673 128.557 269.821 126.638 268.64C125.9 268.197 125.457 261.037 125.162 252.327L156.975 252.106C156.975 252.106 175.871 260.52 177.79 261.997C179.709 263.547 181.259 268.492 179.561 269.083Z" fill="#005D68"/>
<path d="M178.823 267.09C170.556 266.942 137.193 267.016 129 267.459C128.926 267.459 128.926 267.533 129 267.533C137.193 267.902 170.556 267.533 178.823 267.237C178.971 267.237 178.971 267.09 178.823 267.09Z" fill="#5C8686"/>
<path d="M174.616 260.225C172.623 260.151 170.778 261.111 169.671 262.292C168.637 263.399 167.751 265.023 167.825 266.721C167.825 266.794 167.899 266.794 167.899 266.721C168.342 263.473 171.294 260.668 174.542 260.373C174.69 260.373 174.69 260.299 174.616 260.225Z" fill="#5C8686"/>
<path d="M160.149 252.918C156.827 252.918 152.989 254.099 150.996 256.756C150.922 256.83 151.07 256.977 151.144 256.904C154.096 255.354 156.975 254.173 160.223 253.287C160.444 253.287 160.37 252.918 160.149 252.918Z" fill="#5C8686"/>
<path d="M162.732 253.951C159.411 253.951 155.572 255.132 153.58 257.789C153.506 257.863 153.653 258.011 153.727 257.937C156.68 256.387 159.558 255.206 162.806 254.32C163.027 254.246 162.954 253.951 162.732 253.951Z" fill="#5C8686"/>
<path d="M165.242 254.911C161.92 254.911 158.082 256.092 156.089 258.749C156.015 258.823 156.163 258.97 156.237 258.897C159.189 257.347 162.068 256.166 165.316 255.28C165.537 255.28 165.537 254.911 165.242 254.911Z" fill="#5C8686"/>
<path d="M167.825 255.87C164.504 255.87 160.665 257.051 158.673 259.709C158.599 259.782 158.746 259.93 158.82 259.856C161.773 258.306 164.651 257.125 167.899 256.239C168.12 256.239 168.047 255.87 167.825 255.87Z" fill="#5C8686"/>
<path d="M131.067 259.635C127.376 259.635 127.376 265.392 131.141 265.392C134.831 265.318 134.758 259.561 131.067 259.635Z" fill="#5C8686"/>
<path d="M163.692 244.06C161.994 242.658 159.927 244.06 158.894 245.463C157.196 247.825 156.089 251.073 155.942 253.951C155.942 254.025 156.015 254.025 156.015 254.025C156.089 254.246 156.384 254.468 156.606 254.32C158.968 252.696 161.699 251.22 163.47 248.932C164.504 247.603 165.316 245.389 163.692 244.06ZM159.632 251.146C158.525 251.958 157.344 252.77 156.237 253.656C156.827 252.032 157.344 250.334 158.082 248.711C158.451 247.972 158.82 247.161 159.263 246.496C160.001 245.389 163.249 242.658 163.544 246.201C163.766 248.194 161.035 250.113 159.632 251.146Z" fill="#5C8686"/>
<path d="M147.675 255.28C150.553 255.723 153.506 254.911 156.384 254.468C156.68 254.394 156.753 254.099 156.606 253.877C156.68 253.877 156.68 253.804 156.606 253.73C154.465 251.811 151.439 250.187 148.56 249.67C146.789 249.375 144.353 249.818 144.132 251.958C143.91 253.951 145.977 254.985 147.675 255.28ZM145.682 253.361C143.467 250.556 147.675 250.261 149.003 250.556C149.815 250.777 150.627 251.073 151.439 251.368C153.063 251.958 154.613 252.844 156.163 253.656C154.761 253.804 153.358 254.025 151.956 254.246C150.258 254.394 146.937 254.911 145.682 253.361Z" fill="#5C8686"/>
<path d="M72.5344 98.6515C72.5344 98.6515 110.843 163.753 111.876 168.33C113.426 175.342 121.767 244.725 121.767 244.725L161.625 243.987C161.625 243.987 154.761 182.797 148.265 162.646C143.615 148.105 109.809 99.9801 109.809 99.9801L72.5344 98.6515Z" fill="#005D68"/>
<path d="M158.008 237.934C152.251 237.86 132.027 237.639 124.424 238.377C124.35 238.377 124.35 238.451 124.424 238.451C127.081 238.82 152.325 238.229 158.008 238.082C158.082 238.082 158.082 237.934 158.008 237.934Z" fill="#5C8686"/>
<path d="M79.1036 104.63C81.6132 108.542 84.2704 112.454 86.8538 116.293C89.4372 120.205 91.9468 124.117 94.5302 128.029C99.5494 135.853 104.495 143.824 109.293 151.796C111.581 155.56 113.721 159.325 115.271 163.384C116.821 167.444 117.855 171.651 118.667 175.859C119.479 180.14 119.995 184.421 120.438 188.776C120.955 193.352 121.471 198.002 121.988 202.578C123.022 211.952 124.055 221.4 125.162 230.774C125.31 231.955 125.384 233.063 125.531 234.244C125.531 234.391 125.236 234.465 125.236 234.244C124.055 224.869 123.095 215.495 122.062 206.195C121.545 201.545 121.029 196.895 120.438 192.245C119.921 187.89 119.479 183.609 118.814 179.254C118.15 175.047 117.264 170.839 116.009 166.706C114.681 162.425 112.762 158.439 110.474 154.527C105.823 146.555 100.952 138.731 96.0803 130.907C91.1349 123.009 86.1895 115.185 81.0227 107.435C80.3584 106.476 79.7679 105.516 79.1036 104.557C78.8822 104.63 79.0298 104.557 79.1036 104.63Z" fill="#5C8686"/>
<path d="M85.0824 272.921C83.2371 272.773 36.3667 253.804 35.0381 252.032C34.9643 251.958 34.9643 251.884 34.9643 251.663C34.9643 250.039 38.212 244.429 40.9431 236.974C41.0907 236.532 42.3455 234.317 43.9693 231.365C48.6195 223.245 56.7387 209.295 56.7387 209.295L87.3706 221.474L72.6821 243.47L70.3939 248.784C70.3939 248.784 84.7872 263.62 85.9682 265.761C87.2968 267.828 86.9277 272.995 85.0824 272.921Z" fill="#EB9481"/>
<path d="M85.0824 272.921C83.2371 272.773 36.3667 253.804 35.0381 252.032C34.9643 251.958 34.9643 251.885 34.9643 251.663C34.9643 250.039 38.212 244.43 40.943 236.975C41.0906 236.532 42.3454 234.317 43.9693 231.365L72.7558 243.396L70.4677 248.711C70.4677 248.711 84.8609 263.547 86.0419 265.687C87.2967 267.828 86.9277 272.995 85.0824 272.921Z" fill="white"/>
<path d="M85.0824 272.921C83.2371 272.847 36.3667 253.804 35.0381 252.032C34.5214 251.368 36.6619 244.946 40.943 237.048L70.4677 248.784C70.4677 248.784 84.8609 263.621 86.0419 265.761C87.3705 267.828 86.9277 272.995 85.0824 272.921Z" fill="#005D68"/>
<path d="M85.1562 270.78C77.5536 267.532 46.6265 255.058 38.8763 252.401C38.8025 252.401 38.8025 252.401 38.8763 252.475C46.3313 255.87 77.406 268.049 85.1562 270.928C85.3038 271.002 85.3038 270.854 85.1562 270.78Z" fill="#5C8686"/>
<path d="M83.8276 262.882C82.0561 262.07 79.9155 262.218 78.5131 262.882C77.1107 263.547 75.7083 264.654 75.1916 266.278C75.1916 266.351 75.2654 266.351 75.2654 266.278C76.8893 263.473 80.7275 261.923 83.8276 262.882C83.9014 263.03 83.9014 262.956 83.8276 262.882Z" fill="#5C8686"/>
<path d="M73.1987 250.703C70.1724 249.449 66.1128 249.08 63.2341 250.851C63.0865 250.925 63.2341 251.073 63.3079 251.073C66.6295 250.777 69.7295 250.777 73.0511 251.146C73.3463 251.146 73.4201 250.777 73.1987 250.703Z" fill="#5C8686"/>
<path d="M75.1916 252.549C72.1653 251.294 68.1057 250.925 65.227 252.696C65.0794 252.77 65.227 252.918 65.3009 252.918C68.6224 252.623 71.7225 252.622 75.044 252.992C75.3392 252.992 75.413 252.623 75.1916 252.549Z" fill="#5C8686"/>
<path d="M77.1845 254.468C74.1583 253.213 70.0986 252.844 67.22 254.615C67.0723 254.689 67.22 254.837 67.2938 254.837C70.6153 254.542 73.7154 254.542 77.0369 254.911C77.3321 254.837 77.406 254.542 77.1845 254.468Z" fill="#5C8686"/>
<path d="M79.1774 256.313C76.1512 255.058 72.0915 254.689 69.2129 256.461C69.0652 256.535 69.2129 256.682 69.2867 256.682C72.6082 256.387 75.7083 256.387 79.0298 256.756C79.3251 256.756 79.3989 256.387 79.1774 256.313Z" fill="#5C8686"/>
<path d="M43.7479 245.979C40.2787 244.577 38.1382 249.965 41.6073 251.368C45.0765 252.696 47.217 247.308 43.7479 245.979Z" fill="#5C8686"/>
<path d="M79.7679 243.839C78.7346 241.92 76.2988 242.437 74.7487 243.322C72.313 244.872 70.0248 247.456 68.8438 250.039C68.8438 250.113 68.8438 250.113 68.9176 250.187C68.9176 250.408 69.0652 250.704 69.3605 250.63C72.1653 249.965 75.1916 249.67 77.7012 248.194C79.2512 247.382 80.8013 245.61 79.7679 243.839ZM73.4201 248.858C72.0177 249.227 70.6891 249.449 69.3605 249.892C70.5415 248.563 71.6486 247.234 72.9034 246.053C73.4939 245.463 74.1582 244.946 74.8225 244.43C75.9297 243.691 79.9155 242.289 78.8822 245.758C78.3655 247.677 75.044 248.415 73.4201 248.858Z" fill="#5C8686"/>
<path d="M60.7983 248.12C63.3079 249.596 66.408 249.965 69.139 250.556C69.4343 250.63 69.5819 250.334 69.5819 250.113C69.6557 250.113 69.6557 250.039 69.6557 249.965C68.4009 247.382 66.1866 244.799 63.7508 243.175C62.2746 242.215 59.765 241.698 58.7316 243.618C57.7721 245.537 59.3221 247.308 60.7983 248.12ZM59.6174 245.684C58.584 242.215 62.6436 243.618 63.677 244.356C64.3413 244.872 65.0056 245.389 65.5961 245.98C66.8509 247.161 67.9581 248.563 69.139 249.818C67.8104 249.449 66.408 249.153 65.0794 248.784C63.4556 248.342 60.2078 247.603 59.6174 245.684Z" fill="#5C8686"/>
<path d="M75.1916 242.215L40.8692 228.339C40.8692 228.339 83.3847 165.82 83.7537 161.096C84.049 156.963 65.3747 121.09 64.6365 110.609C63.8246 99.3159 69.2867 90.6061 75.2654 85.144L110.695 100.202C110.695 100.202 106.931 106.18 101.099 109.502C101.099 109.502 119.257 150.984 118.224 163.753C117.043 176.597 75.1916 242.215 75.1916 242.215Z" fill="#005D68"/>
<path d="M76.6678 235.646C71.7225 233.505 73.1249 234.022 68.1795 231.955C65.7437 230.922 49.7266 224.279 47.2908 223.688C47.217 223.688 47.217 223.762 47.217 223.762C49.3575 225.091 65.5223 231.439 67.9581 232.398C72.9773 234.391 71.5748 233.727 76.594 235.646C76.7417 235.867 76.8155 235.72 76.6678 235.646Z" fill="#5C8686"/>
<path d="M106.783 108.764C103.092 109.576 99.4756 110.831 96.0065 112.233C95.8589 112.307 95.9327 112.454 96.0803 112.454C99.6971 111.421 103.388 110.388 106.931 109.133C107.226 109.133 107.078 108.764 106.783 108.764Z" fill="#5C8686"/>
<path d="M102.576 107.361C102.207 107.952 101.911 108.616 101.69 109.28C101.469 109.797 101.247 110.314 101.247 110.904C101.247 110.978 101.395 111.052 101.469 110.978C101.911 110.609 102.133 110.019 102.354 109.502C102.65 108.911 102.945 108.321 103.24 107.73C103.388 107.214 102.797 106.992 102.576 107.361Z" fill="#5C8686"/>
<path d="M103.019 104.04C103.24 103.523 103.461 102.933 103.683 102.416C103.904 101.826 104.2 101.309 104.421 100.718C104.421 100.645 104.569 100.718 104.569 100.792C104.347 101.309 104.2 101.899 104.052 102.49C103.904 103.08 103.683 103.597 103.535 104.188C103.166 105.221 102.797 106.254 102.28 107.288C102.871 107.288 103.461 107.288 103.978 106.992C104.569 106.697 104.864 106.107 105.159 105.516C105.454 104.926 105.75 104.261 106.045 103.671C106.414 103.007 106.783 102.342 107.004 101.604C107.004 101.53 107.152 101.604 107.152 101.678C106.635 103.154 106.119 104.63 105.233 106.033C104.938 106.55 104.642 107.14 104.052 107.361C103.388 107.583 102.723 107.509 102.059 107.509C101.985 107.509 101.838 107.509 101.911 107.361C102.207 106.18 102.576 105.073 103.019 104.04Z" fill="#5C8686"/>
<path d="M101.542 110.904C102.797 113.562 103.904 116.219 105.085 118.876C106.266 121.459 107.3 124.117 108.333 126.774C110.474 132.088 112.319 137.55 114.017 143.012C114.828 145.743 115.567 148.475 116.305 151.206C116.969 153.937 117.633 156.741 117.929 159.62C118.224 162.499 118.002 165.304 117.19 168.035C116.378 170.839 115.345 173.275 114.09 175.859C113.352 177.482 113.057 177.261 113.426 176.449C114.459 174.161 117.264 167.223 117.043 161.392C116.969 158.587 116.378 155.782 115.714 153.051C115.05 150.246 114.312 147.515 113.5 144.71C111.95 139.322 110.031 134.007 108.112 128.693C107.004 125.741 105.897 122.788 104.79 119.836C103.683 116.883 102.576 114.152 101.321 110.904C101.321 110.904 101.469 110.831 101.542 110.904Z" fill="#5C8686"/>
<path d="M75.4869 102.121C76.0773 101.899 76.9631 102.268 77.5536 102.342C78.3655 102.49 79.1774 102.564 79.9894 102.564C80.8013 102.564 81.6132 102.564 82.4251 102.49C83.2371 102.416 84.049 102.342 84.7133 101.899C85.8943 101.161 86.8538 99.9064 87.6658 98.7992C88.5515 97.5444 89.4372 96.2158 89.9539 94.7396C89.9539 94.6657 90.1016 94.7396 90.1016 94.8134C89.8063 95.6253 89.6587 96.4372 89.2896 97.2492C88.9944 97.9873 88.5515 98.7254 88.1825 99.3897C87.3705 100.718 86.4848 102.047 85.1562 102.859C83.7538 103.671 81.9085 103.597 80.2846 103.523C79.3989 103.449 78.4393 103.376 77.5536 103.154C76.8893 103.006 75.7821 102.933 75.413 102.342C75.3392 102.268 75.3392 102.121 75.4869 102.121Z" fill="#5C8686"/>
<path d="M50.6861 221.769C56.2958 213.207 61.8317 204.645 67.2938 195.935C72.7558 187.226 78.0703 178.516 83.3847 169.658C84.6395 167.518 86.1157 165.451 86.9277 163.089C87.8134 160.58 87.2967 158.07 86.4848 155.634C85.0085 151.058 83.1633 146.629 81.2442 142.348C79.2512 137.993 77.1107 133.712 75.044 129.357C72.9773 125.076 70.7629 120.795 69.2129 116.293C67.7366 112.012 67.1461 107.583 68.2533 103.08C69.4343 98.6516 71.8701 94.7396 74.4535 91.049C75.1178 90.0894 75.8559 89.1299 76.5202 88.1703C76.594 88.0965 76.6678 88.1703 76.594 88.2442C73.7154 92.0824 70.9843 96.142 69.2867 100.718C68.4747 102.933 67.9581 105.295 67.8843 107.73C67.8104 110.166 68.2533 112.528 68.9914 114.89C70.3938 119.393 72.5344 123.6 74.6011 127.807C76.6678 132.088 78.8084 136.369 80.8751 140.724C82.868 145.079 84.7871 149.508 86.3372 154.084C87.0015 156.151 87.8134 158.218 87.7396 160.432C87.6658 162.794 86.5586 164.934 85.3776 167.001C80.2108 175.785 74.8964 184.421 69.5081 192.983C64.1199 201.619 58.584 210.181 52.9743 218.669C52.2362 219.776 51.5719 220.81 50.8338 221.917C50.76 222.065 50.5385 221.917 50.6861 221.769Z" fill="#5C8686"/>
<path d="M112.54 60.491C115.714 67.5032 131.879 77.1725 139.408 78.2058C144.87 78.944 161.33 79.2392 167.013 78.3535C173.656 77.3201 168.563 59.4577 164.651 59.9006C153.875 61.1553 144.722 62.5578 141.844 62.5578C138.301 62.5578 119.331 56.4314 117.043 55.6195C111.507 53.4789 110.769 56.5052 112.54 60.491Z" fill="#EB9481"/>
<path d="M112.614 62.3363C116.674 68.315 130.108 78.132 130.108 78.132L131.953 73.9985L138.153 60.3434C138.153 60.3434 125.827 56.4313 117.707 54.7337C116.6 54.5122 115.641 54.3646 114.829 54.2908C109.588 53.9956 109.145 57.1695 112.614 62.3363Z" fill="#839793"/>
<path d="M112.614 62.3363C116.674 68.315 130.107 78.132 130.107 78.132L131.953 73.9985C126.934 68.1674 119.183 59.3838 114.755 54.2908C109.588 53.9956 109.145 57.1695 112.614 62.3363Z" fill="#263238"/>
<path d="M127.745 75.3273C128.779 72.8177 133.355 62.7055 134.462 60.5649C134.536 60.4173 134.684 60.4173 134.61 60.5649C131.731 68.1675 129 72.9653 127.893 75.3273C127.819 75.4011 127.672 75.4011 127.745 75.3273Z" fill="#263238"/>
<path d="M162.732 60.0481C169.301 59.1624 177.421 57.6861 184.285 60.6386C185.614 61.2291 186.13 62.1887 186.13 62.1887C189.231 63.4435 189.6 65.2887 189.6 65.2887C192.109 67.3555 192.257 69.2746 192.257 69.2746C192.257 69.2746 195.874 70.7508 195.357 73.1128C194.766 75.77 189.747 73.1128 186.13 73.3342C177.864 73.8509 166.201 76.8772 163.839 77.2462L162.732 60.0481Z" fill="#EB9481"/>
<path d="M176.978 67.7984C179.414 67.7246 181.849 67.5031 184.285 67.7984C186.942 68.0198 189.526 68.7579 192.109 69.3484C192.183 69.3484 192.257 69.2746 192.183 69.2008C187.681 67.2817 181.849 66.765 177.052 67.6508C176.83 67.7246 176.83 67.7984 176.978 67.7984Z" fill="#263238"/>
<path d="M175.944 62.8528C178.306 62.8528 182.514 63.0005 189.526 65.4362C189.526 65.4362 189.6 65.4363 189.526 65.3624C185.171 63.1481 180.742 62.41 175.944 62.7052C175.797 62.7052 175.797 62.8528 175.944 62.8528Z" fill="#263238"/>
<path d="M175.428 60.1219C179.487 60.3434 181.997 61.0077 186.057 62.1887C186.057 62.1887 186.13 62.1887 186.057 62.1149C181.554 60.2696 179.709 60.0481 175.354 59.9005C175.28 59.9743 175.28 60.1219 175.428 60.1219Z" fill="#263238"/>
<path d="M176.092 74.589C175.059 75.1057 175.28 75.6223 177.273 76.139C179.34 76.5819 187.681 76.7295 187.385 79.682C187.09 82.6345 175.28 82.2654 171.959 81.232C168.637 80.1987 163.692 77.3938 163.692 77.3938C166.054 76.951 171.516 75.4747 176.092 74.589Z" fill="#EB9481"/>
<path d="M121.324 71.6364C121.25 72.8912 121.176 74.146 120.955 75.4746C120.955 75.4008 120.955 75.4008 121.029 75.327C121.25 74.6627 121.545 73.9984 121.841 73.3341H121.914C121.767 73.9984 121.545 74.7365 121.25 75.4008C121.102 75.6961 121.029 76.0651 120.881 76.3604C120.807 76.9509 120.66 77.4676 120.586 78.058C120.364 79.0914 119.405 83.5939 119.11 84.332C119.036 84.4797 118.888 84.4797 118.888 84.2582C118.962 83.4463 119.774 78.7224 119.921 77.689C120.217 75.6223 120.66 73.5555 121.25 71.5626L121.324 71.6364Z" fill="#263238"/>
<path d="M113.647 105.221C111.655 106.254 109.145 107.804 97.7041 105.59C96.966 105.442 96.3017 105.295 95.5636 105.073C84.8609 101.825 71.9439 89.2037 71.2058 88.3179C71.2058 88.3179 88.2563 60.7124 110.031 52.0026C112.688 50.8954 117.19 52.9622 119.626 55.5456C120.512 56.4313 122.431 63.222 121.693 68.7578C120.955 74.2199 115.64 104.187 113.647 105.221Z" fill="#839793"/>
<path d="M112.097 68.4626C112.171 69.0531 112.097 69.6436 112.024 70.2341C111.95 70.8246 111.802 71.3413 111.581 71.9318C111.507 71.3413 111.581 70.7508 111.655 70.1603C111.802 69.5698 111.876 69.0531 112.097 68.4626Z" fill="white"/>
<path d="M104.642 87.2845C104.716 87.875 104.642 88.4655 104.569 89.056C104.495 89.6465 104.347 90.1632 104.126 90.7537C104.052 90.1632 104.126 89.5727 104.2 88.9822C104.347 88.3917 104.421 87.875 104.642 87.2845Z" fill="white"/>
<path d="M92.0207 73.0388C92.0945 73.6293 92.0207 74.2198 91.9469 74.8103C91.873 75.4008 91.7254 75.9175 91.504 76.508C91.4302 75.9175 91.504 75.327 91.5778 74.7365C91.7254 74.2198 91.7992 73.6293 92.0207 73.0388Z" fill="white"/>
<path d="M116.969 86.3251C117.043 86.9156 116.969 87.5061 116.895 88.0965C116.821 88.687 116.674 89.2037 116.452 89.7942C116.379 89.2037 116.452 88.6132 116.526 88.0227C116.674 87.4322 116.748 86.9156 116.969 86.3251Z" fill="white"/>
<path d="M100.73 70.6031C101.321 70.5293 101.911 70.6031 102.502 70.6769C103.092 70.7507 103.609 70.8983 104.2 71.1198C103.609 71.1936 103.019 71.1198 102.428 71.046C101.911 70.9721 101.321 70.8245 100.73 70.6031Z" fill="white"/>
<path d="M86.411 84.2582C87.0015 84.1844 87.5919 84.2582 88.1824 84.3321C88.7729 84.4059 89.2896 84.5535 89.8801 84.7749C89.2896 84.8487 88.6991 84.7749 88.1086 84.7011C87.5181 84.5535 87.0015 84.4797 86.411 84.2582Z" fill="white"/>
<path d="M103.314 98.9468C103.904 98.873 104.495 98.9468 105.085 99.0206C105.676 99.0945 106.192 99.2421 106.783 99.4635C106.192 99.5373 105.602 99.4635 105.012 99.3897C104.421 99.2421 103.831 99.1683 103.314 98.9468Z" fill="white"/>
<path d="M81.9823 93.5587C82.5728 93.4848 83.1633 93.5586 83.7538 93.6325C84.3443 93.7063 84.8609 93.8539 85.4514 94.0753C84.8609 94.1491 84.2704 94.0753 83.6799 94.0015C83.1633 93.9277 82.5728 93.7801 81.9823 93.5587Z" fill="white"/>
<path d="M112.024 55.2503C112.614 55.1765 113.205 55.2503 113.795 55.3241C114.386 55.3979 114.902 55.5456 115.493 55.767C114.902 55.8408 114.312 55.767 113.721 55.6932C113.131 55.6194 112.54 55.4717 112.024 55.2503Z" fill="white"/>
<path d="M107.816 59.9742C107.447 60.4171 107.004 60.7862 106.562 61.1552C106.119 61.5243 105.602 61.8195 105.085 62.041C105.454 61.5981 105.897 61.229 106.34 60.86C106.783 60.4909 107.3 60.1957 107.816 59.9742Z" fill="white"/>
<path d="M85.0824 73.3341C84.7133 73.777 84.2704 74.146 83.8276 74.5151C83.3847 74.8842 82.868 75.1794 82.3513 75.4008C82.7204 74.958 83.1633 74.5889 83.6061 74.2199C84.049 73.9246 84.5657 73.5555 85.0824 73.3341Z" fill="white"/>
<path d="M113.5 79.3867C113.131 79.8296 112.688 80.1986 112.245 80.5677C111.802 80.9368 111.285 81.232 110.769 81.4534C111.138 81.0106 111.581 80.6415 112.024 80.2725C112.466 79.9034 112.909 79.6082 113.5 79.3867Z" fill="white"/>
<path d="M95.1207 90.9751C94.7517 91.418 94.3088 91.787 93.8659 92.1561C93.4231 92.5251 92.9064 92.8204 92.3897 93.0418C92.7588 92.599 93.2016 92.2299 93.6445 91.8608C94.0874 91.4918 94.5302 91.1965 95.1207 90.9751Z" fill="white"/>
<path d="M120.512 63.5911C120.143 64.0339 119.7 64.403 119.257 64.7721C118.814 65.1411 118.298 65.4364 117.781 65.6578C118.15 65.2149 118.593 64.8459 119.036 64.4768C119.479 64.1077 119.995 63.8125 120.512 63.5911Z" fill="white"/>
<path d="M120.143 76.9509C119.7 76.5818 119.331 76.139 118.962 75.6961C118.593 75.2532 118.298 74.7365 118.076 74.2198C118.519 74.5889 118.888 75.0318 119.257 75.4746C119.552 75.9175 119.921 76.4342 120.143 76.9509Z" fill="white"/>
<path d="M79.1774 86.2513C78.7346 85.8822 78.3655 85.4394 77.9964 84.9965C77.6274 84.5536 77.3321 84.0369 77.1107 83.5203C77.5536 83.8893 77.9226 84.3322 78.2917 84.7751C78.5869 85.2179 78.956 85.6608 79.1774 86.2513Z" fill="white"/>
<path d="M115.198 97.2492C114.755 96.8802 114.386 96.4373 114.017 95.9944C113.647 95.5516 113.352 95.0349 113.131 94.5182C113.574 94.8872 113.943 95.3301 114.312 95.773C114.607 96.2159 114.902 96.6587 115.198 97.2492Z" fill="white"/>
<path d="M97.1137 65.8792C96.6708 65.5102 96.3017 65.0673 95.9327 64.6244C95.5636 64.1816 95.2684 63.6649 95.0469 63.1482C95.4898 63.5173 95.8589 63.9601 96.2279 64.403C96.597 64.8459 96.8922 65.3625 97.1137 65.8792Z" fill="white"/>
<path d="M97.4827 103.449C97.0398 103.08 96.6708 102.637 96.3017 102.194C95.9327 101.752 95.6374 101.235 95.416 100.718C95.8589 101.087 96.2279 101.53 96.597 101.973C96.8922 102.416 97.1875 102.933 97.4827 103.449Z" fill="white"/>
<path d="M100.509 81.3059C100.066 80.9368 99.6971 80.4939 99.328 80.0511C98.959 79.6082 98.6637 79.0915 98.4423 78.5748C98.8851 78.9439 99.2542 79.3868 99.6233 79.8296C99.9185 80.2725 100.288 80.7154 100.509 81.3059Z" fill="white"/>
<path d="M115.64 62.853C112.836 62.3363 110.252 56.579 109.883 52.7408C109.883 52.4455 111.212 50.3788 112.688 47.7216C113.574 46.0977 114.533 44.3262 115.271 42.6286C115.419 42.2595 116.305 43.4405 116.305 43.4405L118.298 44.9167L124.867 49.9359C124.867 49.9359 122.21 53.036 120.955 56.0623C120.881 56.2837 120.807 56.579 120.733 56.8004C120.733 56.8004 120.733 56.8742 120.733 56.948C120.291 58.3504 118.371 63.3696 115.64 62.853Z" fill="#EB9481"/>
<path d="M120.733 56.8004C120.733 56.8004 120.733 56.8742 120.733 56.948C120.364 56.8742 119.995 56.7266 119.626 56.5052C112.466 53.1837 115.64 43.5881 115.64 43.5881L118.445 44.9906L125.014 50.0097C125.014 50.0097 122.357 53.1098 121.102 56.1361C120.881 56.3576 120.807 56.579 120.733 56.8004Z" fill="#263238"/>
<path d="M132.396 29.564C132.396 29.564 135.643 31.6307 135.717 35.3213C135.717 39.0119 134.241 42.6286 133.946 42.7762C133.65 42.9239 132.396 29.564 132.396 29.564Z" fill="#263238"/>
<path d="M116.157 31.483C114.164 35.395 114.312 47.5739 116.748 50.7478C120.291 55.3242 127.155 56.8742 131.288 52.3717C135.274 48.0168 134.905 32.0735 132.027 29.121C127.893 24.6923 119.11 25.7257 116.157 31.483Z" fill="#EB9481"/>
<path d="M126.638 41.2262L126.564 41.3C126.638 42.1119 126.491 43.0715 125.753 43.3667V43.4405C126.712 43.2929 126.786 42.0381 126.638 41.2262Z" fill="#263238"/>
<path d="M125.826 40.4142C124.498 40.3404 124.424 42.9976 125.679 43.0714C126.934 43.1453 127.007 40.488 125.826 40.4142Z" fill="#263238"/>
<path d="M131.141 41.2262L131.215 41.3C131.141 42.1119 131.288 43.0715 132.027 43.3667V43.4405C131.141 43.2929 130.993 41.9643 131.141 41.2262Z" fill="#263238"/>
<path d="M131.953 40.3404C133.282 40.2666 133.355 42.9238 132.101 42.9976C130.846 43.1452 130.772 40.4142 131.953 40.3404Z" fill="#263238"/>
<path d="M125.014 38.3475C125.384 38.2737 125.679 38.1261 126.048 37.9784C126.417 37.8308 126.786 37.757 127.081 37.388C127.229 37.1665 127.155 36.8713 127.007 36.7237C126.638 36.3546 126.048 36.4284 125.605 36.576C125.088 36.7236 124.719 37.0189 124.424 37.4618C124.055 37.9046 124.498 38.4951 125.014 38.3475Z" fill="#263238"/>
<path d="M132.838 39.5285C132.469 39.4547 132.1 39.3071 131.805 39.2333C131.362 39.0857 131.067 39.0857 130.772 38.7166C130.624 38.569 130.624 38.1999 130.846 38.0523C131.215 37.6833 131.731 37.6833 132.248 37.8309C132.765 37.9785 133.134 38.1999 133.503 38.6428C133.798 39.0119 133.355 39.6024 132.838 39.5285Z" fill="#263238"/>
<path d="M124.719 49.124C124.941 49.3455 125.088 49.5669 125.383 49.6407C125.679 49.6407 126.048 49.5669 126.269 49.4193C126.269 49.4193 126.343 49.4193 126.269 49.4931C126.048 49.7883 125.605 50.0098 125.236 49.936C124.867 49.8621 124.645 49.5669 124.572 49.1978C124.645 49.124 124.719 49.124 124.719 49.124Z" fill="#263238"/>
<path d="M129.517 45.581C129.517 45.581 129.517 46.8358 129.517 47.4263C129.517 47.5001 127.893 47.1311 126.122 47.5739C125.826 47.6477 125.9 47.4263 126.195 47.2787C126.786 46.9834 127.598 46.762 129.074 46.9096C129.148 46.762 129 44.9905 129.074 44.9905C129.369 44.9905 129.96 45.2858 130.329 45.4334C130.329 42.85 129.886 40.2666 129.96 37.6832C129.96 37.6094 130.107 37.6094 130.107 37.6832C130.698 40.3404 130.772 43.3667 130.846 46.0239C130.919 46.2453 129.738 45.7286 129.517 45.581Z" fill="#263238"/>
<path d="M127.893 46.9835C127.893 46.9835 127.303 48.4597 126.343 48.8288C125.236 49.2717 124.867 48.2383 125.974 47.3526C126.564 46.9097 127.893 46.9835 127.893 46.9835Z" fill="#263238"/>
<path d="M126.712 48.6075C126.565 48.6813 126.491 48.7551 126.343 48.8289C125.31 49.2718 124.941 48.386 125.753 47.5741C126.269 47.6479 126.934 47.7955 126.712 48.6075Z" fill="#FF99BA"/>
<path d="M115.64 41.8905C116.969 42.3334 118.519 38.2737 118.962 36.6499C119.331 35.2475 119.774 30.8926 119.848 30.5973C119.921 30.3021 125.753 34.4355 129.148 33.476C132.543 32.5164 134.831 29.4163 134.905 28.0139C134.979 26.6115 130.698 22.9947 127.081 22.7733C123.391 22.5519 118.445 27.202 118.445 27.202C118.445 27.202 120.143 25.2091 120.069 25.0614C119.995 24.9138 117.633 25.8734 117.19 27.4972C117.19 27.4972 117.633 25.3567 117.486 25.3567C117.338 25.2829 115.493 27.1282 115.862 28.5306C115.862 28.5306 113.721 30.3759 113.574 32.3688C113.352 34.4355 114.017 41.4476 115.64 41.8905Z" fill="#263238"/>
<path d="M131.584 32.8116C130.55 33.2545 129.517 33.845 128.336 33.9926C127.081 34.1402 125.826 33.845 124.645 33.4021C123.464 32.9592 122.431 32.2949 121.398 31.483C120.512 30.8187 119.774 29.933 118.888 29.3425C118.667 29.1948 118.371 29.4901 118.519 29.7115C119.921 31.7783 122.357 33.4759 124.719 34.2878C127.229 35.026 129.591 34.5093 131.584 32.8116Z" fill="#263238"/>
<path d="M117.043 41.5213C117.043 41.5213 114.976 37.2403 113.057 37.9784C111.138 38.6427 112.319 44.5476 114.238 45.6548C116.157 46.762 117.19 44.9905 117.19 44.9905L117.043 41.5213Z" fill="#EB9481"/>
<path d="M113.426 39.6761C114.755 40.5619 115.271 41.9643 115.64 43.4405C115.271 42.85 114.755 42.481 113.943 42.85C113.869 42.85 113.943 42.9239 113.943 42.9239C114.533 42.9239 114.976 43.0715 115.271 43.5882C115.493 43.9572 115.64 44.4001 115.788 44.843C115.862 44.9906 116.083 44.9168 116.083 44.7691C116.378 42.9239 115.345 40.119 113.426 39.6761Z" fill="#263238"/>
<path d="M103.166 60.5648C101.69 68.9055 110.769 97.1015 116.6 102.342C125.236 110.166 141.253 115.333 147.01 116.957C149.52 117.695 156.532 99.9063 153.949 98.7254C148.487 96.2158 131.51 90.9013 129.886 89.5727C128.262 88.2441 118.519 74.1461 114.164 66.0268C108.407 55.2503 103.904 56.2837 103.166 60.5648Z" fill="#EB9481"/>
<path d="M149.668 97.2491C149.668 97.2491 157.196 99.1682 162.068 100.644C164.799 101.456 169.301 103.302 170.999 104.852C173.582 107.14 182.883 118.285 180.226 120.574C177.79 122.64 171.073 112.085 171.073 112.085C171.073 112.085 178.823 122.197 175.502 124.19C172.106 126.183 166.128 113.192 166.128 113.192C166.128 113.192 173.878 123.748 170.113 125.224C167.235 126.331 161.108 114.89 161.108 114.89C161.108 114.89 167.678 124.043 164.799 125.298C161.625 126.7 155.277 116.514 155.277 116.514C147.379 118.581 142.729 116.293 139.703 114.3C138.817 113.783 149.668 97.2491 149.668 97.2491Z" fill="#EB9481"/>
<path d="M168.637 108.395C169.597 109.576 170.556 110.683 171.442 111.938C172.328 113.192 173.066 114.447 173.804 115.776C175.575 118.95 176.24 121.238 176.166 121.164C174.911 117.916 171.959 113.488 171.073 112.233C170.187 110.904 169.375 109.649 168.637 108.395C168.563 108.395 168.563 108.395 168.637 108.395Z" fill="#263238"/>
<path d="M164.061 111.347C165.685 112.676 169.154 117.473 170.482 120.721C170.556 120.869 170.482 120.869 170.409 120.721C169.375 119.171 165.168 112.971 164.061 111.347Z" fill="#263238"/>
<path d="M159.78 113.266C161.699 115.111 163.249 117.695 164.504 120.647C164.577 120.795 164.43 120.795 164.356 120.647C162.806 118.138 161.625 116.219 159.632 113.34C159.632 113.266 159.706 113.192 159.78 113.266Z" fill="#263238"/>
<path d="M111.433 61.1553C104.716 51.6336 100.657 55.1766 101.985 65.5102C103.24 75.1795 106.635 86.6941 106.635 86.6941L123.612 78.4272C123.686 78.4272 115.714 67.2817 111.433 61.1553Z" fill="#839793"/>
<path d="M115.493 64.9197C115.714 65.4364 115.862 66.0269 115.936 66.6173C116.009 67.2078 116.083 67.7983 116.083 68.3888C115.862 67.8721 115.714 67.2816 115.64 66.6912C115.567 66.1007 115.493 65.5102 115.493 64.9197Z" fill="white"/>
<path d="M105.454 70.6769C105.971 70.4555 106.562 70.3079 107.152 70.234C107.743 70.1602 108.333 70.0864 108.924 70.0864C108.407 70.3079 107.816 70.4555 107.226 70.5293C106.635 70.6769 106.045 70.7507 105.454 70.6769Z" fill="white"/>
<path d="M105.897 55.8408C105.676 56.4313 105.381 56.8742 105.012 57.3909C104.642 57.8337 104.347 58.3504 103.831 58.7195C104.052 58.129 104.347 57.6861 104.716 57.1694C105.085 56.7266 105.454 56.2837 105.897 55.8408Z" fill="white"/>
<path d="M120.291 75.1796C120.069 75.7701 119.774 76.2129 119.405 76.7296C119.036 77.1725 118.74 77.6892 118.224 78.0582C118.445 77.4677 118.74 77.0249 119.11 76.5082C119.479 75.9915 119.774 75.5486 120.291 75.1796Z" fill="white"/>
<path d="M108.481 80.9367C107.89 80.7153 107.447 80.42 106.931 80.051C106.488 79.6819 105.971 79.3867 105.602 78.87C106.192 79.0914 106.635 79.3867 107.152 79.7557C107.669 80.1248 108.112 80.4939 108.481 80.9367Z" fill="white"/>
<path d="M113.647 64.0339C114.533 65.2887 115.493 66.4697 116.452 67.7245C116.231 67.134 116.009 66.4697 115.862 65.8792C115.862 65.8792 115.862 65.8054 115.936 65.8792C116.157 66.3959 116.305 66.8387 116.526 67.3554C116.6 67.5769 116.674 67.7983 116.821 68.0935C116.821 68.1674 116.895 68.1674 116.895 68.2412C117.633 69.2007 118.371 70.1603 119.036 71.1198C119.848 72.3008 120.66 73.4818 121.472 74.6628C122.283 75.9176 123.095 77.32 123.981 78.501C124.055 78.5748 122.505 79.2391 122.357 79.3129C122.21 79.3867 122.136 79.2391 122.283 79.1653C122.431 79.0915 123.686 78.3534 123.686 78.3534C122.874 77.1724 121.914 76.0652 121.102 74.8842C120.291 73.7032 119.405 72.5961 118.593 71.4151C116.821 68.9055 115.271 66.4697 113.647 64.0339C113.647 63.9601 113.574 64.0339 113.647 64.0339Z" fill="#263238"/>
<path d="M102.428 72.3746C102.723 72.8913 102.945 73.408 103.166 73.9247C103.24 74.1461 103.388 74.3675 103.461 74.589C103.092 72.7437 102.723 70.8984 102.28 69.0531C103.092 72.0056 103.831 75.0318 104.569 78.0581C105.233 80.9368 106.119 83.8154 106.488 86.7679C106.709 86.6941 108.038 86.1774 108.112 86.2512C108.185 86.325 106.414 87.137 106.34 87.137C105.381 84.2583 104.79 81.0106 104.126 78.1319C103.978 77.32 103.757 76.5081 103.609 75.6223C103.388 75.1057 103.166 74.6628 102.945 74.1461C102.797 73.408 102.576 72.8913 102.428 72.3746C102.428 72.3008 102.354 72.3008 102.428 72.3746Z" fill="#263238"/>
<path d="M106.931 83.8892C109.293 82.5605 119.183 77.4675 121.398 76.508C121.545 76.4342 121.619 76.508 121.471 76.5818C114.459 80.7153 109.366 82.782 107.004 83.963C106.931 83.963 106.857 83.8892 106.931 83.8892Z" fill="#263238"/>
<path d="M377.376 277.94H152.472L185.023 93.4849H409.927L377.376 277.94Z" fill="#F7522A"/>
<path d="M262.009 74.3676H188.419L185.023 93.4848H263.78L262.009 74.3676Z" fill="#F7522A"/>
<g opacity="0.1">
<path d="M377.376 277.94H152.472L185.023 93.4849H409.927L377.376 277.94Z" fill="black"/>
<path d="M262.009 74.3676H188.419L185.023 93.4848H263.78L262.009 74.3676Z" fill="black"/>
</g>
<path d="M180.447 82.1917C180.152 81.0845 180.078 80.0512 180.078 78.944C180.078 77.8368 180.152 76.8035 180.447 75.6963C180.742 76.8035 180.816 77.8368 180.816 78.944C180.816 80.0512 180.742 81.0845 180.447 82.1917Z" fill="#263238"/>
<path d="M173.878 84.0371C173.066 83.2252 172.475 82.3394 171.959 81.4537C171.442 80.4941 170.925 79.5346 170.704 78.5012C171.516 79.3131 172.106 80.1989 172.623 81.0846C173.14 82.0442 173.656 83.0037 173.878 84.0371Z" fill="#263238"/>
<path d="M169.154 88.9824C168.047 88.6871 167.087 88.2442 166.201 87.7276C165.316 87.2109 164.356 86.6204 163.618 85.8085C164.725 86.1037 165.685 86.5466 166.57 87.0633C167.53 87.5799 168.416 88.1704 169.154 88.9824Z" fill="#263238"/>
<path d="M167.53 95.5517C166.423 95.8469 165.389 95.9207 164.282 95.9207C163.175 95.9207 162.142 95.8469 161.035 95.5517C162.142 95.2564 163.175 95.1826 164.282 95.1826C165.389 95.2564 166.497 95.3302 167.53 95.5517Z" fill="#263238"/>
<path d="M169.449 102.121C168.637 102.933 167.751 103.523 166.866 104.04C165.906 104.557 164.947 105.073 163.913 105.295C164.725 104.483 165.611 103.892 166.497 103.376C167.382 102.859 168.342 102.416 169.449 102.121Z" fill="#263238"/>
<path d="M174.321 106.845C174.025 107.952 173.582 108.911 173.066 109.797C172.549 110.683 171.959 111.642 171.147 112.381C171.442 111.273 171.885 110.314 172.401 109.428C172.992 108.542 173.582 107.657 174.321 106.845Z" fill="#263238"/>
<path d="M180.964 108.469C181.259 109.576 181.333 110.609 181.333 111.716C181.333 112.824 181.259 113.857 180.964 114.964C180.668 113.857 180.595 112.824 180.595 111.716C180.595 110.609 180.668 109.576 180.964 108.469Z" fill="#263238"/>
<path d="M187.533 106.55C188.345 107.361 188.935 108.247 189.452 109.133C189.969 110.093 190.485 111.052 190.707 112.085C189.895 111.274 189.304 110.388 188.788 109.502C188.271 108.616 187.754 107.657 187.533 106.55Z" fill="#263238"/>
<path d="M192.257 101.678C193.364 101.973 194.324 102.416 195.209 102.933C196.095 103.449 197.055 104.04 197.793 104.852C196.686 104.557 195.726 104.114 194.84 103.597C193.881 103.08 192.995 102.49 192.257 101.678Z" fill="#263238"/>
<path d="M193.881 95.035C194.988 94.7397 196.021 94.6659 197.128 94.6659C198.236 94.6659 199.269 94.7397 200.376 95.035C199.269 95.3302 198.236 95.404 197.128 95.404C196.021 95.404 194.914 95.3302 193.881 95.035Z" fill="#263238"/>
<path d="M191.962 88.5395C192.773 87.7276 193.659 87.1371 194.545 86.6204C195.505 86.1037 196.464 85.587 197.497 85.3656C196.686 86.1775 195.8 86.768 194.914 87.2847C194.028 87.8014 193.069 88.2443 191.962 88.5395Z" fill="#263238"/>
<path d="M187.09 83.8155C187.385 82.7084 187.828 81.7488 188.345 80.8631C188.861 79.9773 189.452 79.0178 190.264 78.2797C189.969 79.3868 189.526 80.3464 189.009 81.2321C188.419 82.1179 187.828 83.0036 187.09 83.8155Z" fill="#263238"/>
<path d="M377.081 277.94H151.66L119.7 100.202H345.047L377.081 277.94Z" fill="#F7862E"/>
<path d="M197.793 208.852C202.97 208.852 207.167 204.655 207.167 199.478C207.167 194.301 202.97 190.104 197.793 190.104C192.616 190.104 188.419 194.301 188.419 199.478C188.419 204.655 192.616 208.852 197.793 208.852Z" fill="#DE4A26"/>
<path d="M271.826 208.852C277.003 208.852 281.2 204.655 281.2 199.478C281.2 194.301 277.003 190.104 271.826 190.104C266.649 190.104 262.452 194.301 262.452 199.478C262.452 204.655 266.649 208.852 271.826 208.852Z" fill="#DE4A26"/>
<path d="M248.28 210.329L247.763 209.369C247.689 209.295 242.892 200.364 233.148 200.364C224.291 200.364 222.077 208.779 222.003 209.148L221.708 210.255L219.567 209.738L219.789 208.631C219.789 208.557 222.446 198.15 233.075 198.15C244.146 198.15 249.461 207.967 249.682 208.336L250.199 209.295L248.28 210.329Z" fill="#DE4A26"/>
<path d="M362.097 198.371C362.614 198.297 363.057 198.15 363.5 198.002" stroke="#263238" stroke-miterlimit="10"/>
<path d="M366.379 197.19C377.672 193.352 387.12 184.494 388.005 174.087C389.998 151.205 362.097 138.584 364.976 112.159C367.707 86.9155 394.206 85.1441 404.761 88.6132C416.497 92.4514 412.437 103.745 401.882 102.268C383.503 99.7588 371.914 79.7558 380.698 57.0956C387.193 40.119 403.506 33.7712 410.075 31.8521" stroke="#263238" stroke-miterlimit="10" stroke-dasharray="4 4"/>
<path d="M411.477 31.4092C412.363 31.1878 412.88 31.0402 412.88 31.0402" stroke="#263238" stroke-miterlimit="10"/>
<path d="M424.616 27.0543C422.697 21.2232 410.149 23.29 412.585 30.9664C415.094 38.569 426.535 32.8855 424.616 27.0543Z" fill="#263238"/>
<path d="M405.72 24.6923C405.794 22.1089 409.337 20.1898 414.43 21.0755C419.449 21.9613 424.173 25.3566 424.173 25.3566C424.173 25.3566 419.228 28.3829 414.135 28.9734C409.042 29.49 405.646 27.2757 405.72 24.6923Z" fill="#839793"/>
<path d="M424.173 25.3567C421.59 25.3567 418.932 25.2829 416.349 25.2091C413.766 25.0615 411.108 24.9877 408.525 24.7662C411.108 24.7662 413.766 24.8401 416.349 24.9139C419.006 25.0615 421.59 25.1353 424.173 25.3567Z" fill="#263238"/>
<path d="M410.813 22.4043C411.551 22.7734 412.289 23.1424 412.954 23.5853C413.618 24.0282 414.356 24.471 414.947 24.9877C414.208 24.6186 413.47 24.2496 412.806 23.8067C412.142 23.3638 411.404 22.921 410.813 22.4043Z" fill="#263238"/>
<path d="M417.604 25.1354C416.939 25.7259 416.201 26.1687 415.537 26.6116C414.799 27.0545 414.061 27.4974 413.323 27.8664C413.987 27.2759 414.725 26.833 415.389 26.3902C416.127 25.9473 416.866 25.5044 417.604 25.1354Z" fill="#263238"/>
<path d="M418.416 23.6591C418.785 23.8067 419.154 24.1019 419.449 24.3234C419.744 24.6186 420.04 24.84 420.335 25.2091C419.966 25.0615 419.597 24.7662 419.301 24.5448C418.932 24.2496 418.637 24.0281 418.416 23.6591Z" fill="#263238"/>
<path d="M410.518 39.8238C412.068 41.8167 416.128 41.3738 419.67 37.6832C423.213 33.9927 425.059 28.4568 425.059 28.4568C425.059 28.4568 419.228 28.8997 414.799 31.4093C410.444 34.0665 408.968 37.8309 410.518 39.8238Z" fill="#839793"/>
<path d="M425.133 28.5305C422.992 30.0806 420.925 31.6306 418.859 33.2545C416.792 34.8783 414.725 36.5022 412.732 38.1998C414.873 36.7236 416.94 35.0998 419.006 33.4759C421.073 31.852 423.14 30.2282 425.133 28.5305Z" fill="#263238"/>
<path d="M415.98 38.7166C416.423 37.9785 416.718 37.2403 417.013 36.5022C417.309 35.7641 417.604 34.9522 417.825 34.1403C417.382 34.8784 417.087 35.6165 416.792 36.3546C416.497 37.1665 416.201 37.9046 415.98 38.7166Z" fill="#263238"/>
<path d="M419.966 32.5163C419.08 32.4425 418.268 32.5163 417.382 32.5163C416.497 32.5901 415.685 32.664 414.799 32.8116C415.685 32.8854 416.497 32.8116 417.382 32.8116C418.194 32.7378 419.08 32.7378 419.966 32.5163Z" fill="#263238"/>
<path d="M421.368 33.2545C421.59 32.8854 421.737 32.5164 421.811 32.0735C421.885 31.7045 422.032 31.2616 422.032 30.8187C421.811 31.1878 421.663 31.5568 421.59 31.9997C421.516 32.4426 421.368 32.8854 421.368 33.2545Z" fill="#263238"/>
<path d="M424.616 27.0544C423.435 27.4235 422.18 26.7592 421.811 25.652C421.442 24.471 422.106 23.2162 423.213 22.8471C424.321 22.4781 425.649 23.1424 426.018 24.2496C426.461 25.4305 425.797 26.6853 424.616 27.0544Z" fill="#455A64"/>
<path d="M426.018 31.2617C424.837 31.6307 423.583 30.9664 423.213 29.8593C422.844 28.6783 423.509 27.4235 424.616 27.0544C425.797 26.6854 427.052 27.3497 427.421 28.4568C427.79 29.6378 427.126 30.8926 426.018 31.2617Z" fill="#455A64"/>
<path d="M183.99 29.3425C182.957 39.4547 173.878 46.7621 163.766 45.7287C159.706 45.2858 156.089 43.5882 153.211 41.0048L143.984 42.3334L148.56 34.3617C147.453 31.6307 146.937 28.6044 147.306 25.5043C148.339 15.3921 157.418 8.08477 167.53 9.11813C177.716 10.2253 185.023 19.2303 183.99 29.3425Z" fill="#839793"/>
<path d="M183.99 29.3425C183.621 32.7378 182.366 35.9855 180.299 38.6427C179.783 39.307 179.192 39.8975 178.602 40.5618C177.937 41.1523 177.347 41.7428 176.683 42.1857C175.354 43.219 173.804 44.031 172.254 44.6215C170.704 45.2858 169.006 45.581 167.309 45.8025C166.423 45.8763 165.611 45.9501 164.725 45.8763C163.839 45.8763 163.027 45.7286 162.216 45.581C158.82 44.9905 155.646 43.3667 153.137 41.0785L153.358 41.1523L144.132 42.5547L143.467 42.6286L143.836 42.0381L148.413 34.0664V34.3617C146.198 29.121 146.715 22.847 149.52 17.9755C150.922 15.5397 152.915 13.3991 155.277 11.8491C157.639 10.2991 160.37 9.2657 163.101 8.89664C165.906 8.52758 168.785 8.74901 171.442 9.63475C174.099 10.5205 176.535 12.0705 178.528 13.9896C182.588 18.0493 184.58 23.8066 183.99 29.3425ZM183.99 29.3425C184.58 23.8066 182.44 18.0493 178.38 14.2111C176.387 12.292 173.952 10.8896 171.294 10.0038C168.637 9.19188 165.832 8.97045 163.101 9.41332C160.37 9.85619 157.787 10.8157 155.499 12.4396C153.284 13.9896 151.365 16.0564 149.963 18.4183C148.56 20.7803 147.822 23.5113 147.601 26.1686C147.453 28.8996 147.896 31.6306 148.929 34.214L149.003 34.3617L148.929 34.5093L144.279 42.4809L143.984 41.9643L153.211 40.7095H153.358L153.432 40.7833C155.868 43.0714 158.968 44.6953 162.216 45.2858C163.027 45.4334 163.839 45.581 164.725 45.581C165.537 45.6548 166.423 45.581 167.235 45.581C168.932 45.4334 170.556 45.1382 172.18 44.4738C173.73 43.8834 175.28 43.1452 176.609 42.1119C177.347 41.669 177.937 41.0047 178.528 40.488C179.118 39.8975 179.709 39.307 180.226 38.5689C182.366 35.9855 183.621 32.7378 183.99 29.3425Z" fill="#263238"/>
<path d="M156.68 35.9853C156.68 34.8782 157.418 34.0662 158.451 34.0662C159.558 34.0662 160.223 34.8782 160.223 35.9853C160.223 37.0187 159.485 37.9044 158.451 37.9044C157.418 37.9044 156.68 37.0925 156.68 35.9853ZM157.492 31.6305L157.049 17.0157H160.001L159.558 31.6305H157.492Z" fill="#EBEBEB"/>
<path d="M163.692 35.9853C163.692 34.8782 164.43 34.0662 165.463 34.0662C166.57 34.0662 167.235 34.8782 167.235 35.9853C167.235 37.0187 166.497 37.9044 165.463 37.9044C164.43 37.9044 163.692 37.0925 163.692 35.9853ZM164.504 31.6305L164.061 17.0157H167.013L166.57 31.6305H164.504Z" fill="#EBEBEB"/>
<path d="M170.778 35.9853C170.778 34.8782 171.516 34.0662 172.549 34.0662C173.656 34.0662 174.321 34.8782 174.321 35.9853C174.321 37.0187 173.583 37.9044 172.549 37.9044C171.442 37.9044 170.778 37.0925 170.778 35.9853ZM171.516 31.6305L171.073 17.0157H174.025L173.583 31.6305H171.516Z" fill="#EBEBEB"/>
</svg>
