<svg viewBox="0 0 388 111" fill="none" xmlns="http://www.w3.org/2000/svg">
<path d="M21.75 111C15.7083 111 11.625 109.729 9.5 107.188C7.41667 104.604 6.375 100.667 6.375 95.375V36.9375H0.0625V19.875H6.375V0H28.125V19.875H34.4375V36.9375H28.125V90.125C28.125 91.6667 28.375 92.75 28.875 93.375C29.375 94 30.3333 94.3125 31.75 94.3125C32.75 94.3125 33.6458 94.2292 34.4375 94.0625V109.312C33.9375 109.479 32.375 109.792 29.75 110.25C27.125 110.75 24.4583 111 21.75 111Z" fill="white"/>
<path d="M58.6875 111C53.4792 111 49.5 109.792 46.75 107.375C44.0417 104.958 42.1875 101.646 41.1875 97.4375C40.1875 93.2292 39.6875 88.4583 39.6875 83.125C39.6875 77.4167 40.25 72.75 41.375 69.125C42.5 65.4583 44.4167 62.4583 47.125 60.125C49.875 57.7917 53.6458 55.8125 58.4375 54.1875L72.3125 49.4375V39.8125C72.3125 34.7708 70.6667 32.25 67.375 32.25C64.375 32.25 62.875 34.2917 62.875 38.375V44H41.125C41.0833 43.6667 41.0625 43.25 41.0625 42.75C41.0625 42.2083 41.0625 41.6042 41.0625 40.9375C41.0625 31.6042 43.25 25 47.625 21.125C52.0417 17.2083 59.0208 15.25 68.5625 15.25C73.5625 15.25 78.0417 16.1458 82 17.9375C85.9583 19.6875 89.0833 22.2917 91.375 25.75C93.7083 29.2083 94.875 33.4792 94.875 38.5625V110H72.625V98.875C71.5417 102.792 69.75 105.792 67.25 107.875C64.75 109.958 61.8958 111 58.6875 111ZM67.5 93.625C69.3333 93.625 70.5833 92.8542 71.25 91.3125C71.9167 89.7708 72.25 88.1042 72.25 86.3125V60.1875C69.1667 61.4375 66.7708 63.0208 65.0625 64.9375C63.3542 66.8125 62.5 69.5833 62.5 73.25V85.3125C62.5 90.8542 64.1667 93.625 67.5 93.625Z" fill="white"/>
<path d="M129.188 111C110.688 111 101.438 101.625 101.438 82.875V75.4375H123.938V86.4375C123.938 88.5625 124.354 90.2292 125.188 91.4375C126.021 92.6458 127.354 93.25 129.188 93.25C132.438 93.25 134.062 90.8125 134.062 85.9375C134.062 81.8542 133.208 78.8125 131.5 76.8125C129.792 74.7708 127.708 72.8125 125.25 70.9375L113.312 61.75C109.562 58.8333 106.708 55.75 104.75 52.5C102.792 49.25 101.812 44.7292 101.812 38.9375C101.812 33.5625 103.083 29.125 105.625 25.625C108.208 22.125 111.604 19.5208 115.812 17.8125C120.062 16.1042 124.646 15.25 129.562 15.25C147.729 15.25 156.812 24.3125 156.812 42.4375V44.1875H133.688V40.625C133.688 38.75 133.354 36.9375 132.688 35.1875C132.062 33.4375 130.812 32.5625 128.938 32.5625C125.771 32.5625 124.188 34.2292 124.188 37.5625C124.188 40.9375 125.521 43.5833 128.188 45.5L142.062 55.625C146.396 58.75 150.021 62.4583 152.938 66.75C155.896 71.0417 157.375 76.75 157.375 83.875C157.375 92.7083 154.854 99.4375 149.812 104.062C144.812 108.688 137.938 111 129.188 111Z" fill="white"/>
<path d="M164.25 110V0H186.375V48.5625L197.125 16.25H220.312L206.25 57L224.125 110H200.312L186.375 65.8125V110H164.25Z" fill="white"/>
<path d="M252.812 111C234.312 111 225.062 101.625 225.062 82.875V75.4375H247.562V86.4375C247.562 88.5625 247.979 90.2292 248.812 91.4375C249.646 92.6458 250.979 93.25 252.812 93.25C256.062 93.25 257.688 90.8125 257.688 85.9375C257.688 81.8542 256.833 78.8125 255.125 76.8125C253.417 74.7708 251.333 72.8125 248.875 70.9375L236.938 61.75C233.188 58.8333 230.333 55.75 228.375 52.5C226.417 49.25 225.438 44.7292 225.438 38.9375C225.438 33.5625 226.708 29.125 229.25 25.625C231.833 22.125 235.229 19.5208 239.438 17.8125C243.688 16.1042 248.271 15.25 253.188 15.25C271.354 15.25 280.438 24.3125 280.438 42.4375V44.1875H257.312V40.625C257.312 38.75 256.979 36.9375 256.312 35.1875C255.688 33.4375 254.438 32.5625 252.562 32.5625C249.396 32.5625 247.812 34.2292 247.812 37.5625C247.812 40.9375 249.146 43.5833 251.812 45.5L265.688 55.625C270.021 58.75 273.646 62.4583 276.562 66.75C279.521 71.0417 281 76.75 281 83.875C281 92.7083 278.479 99.4375 273.438 104.062C268.438 108.688 261.562 111 252.812 111Z" fill="white"/>
<circle cx="340" cy="63" r="48" fill="url(#paint0_linear_350_11)"/>
<path d="M331.234 86.4609V71.2266H316V54.2344H331.234V39H348.227V54.2344H363.461V71.2266H348.227V86.4609H331.234Z" fill="white"/>
<defs>
<linearGradient id="paint0_linear_350_11" x1="388" y1="63" x2="268" y2="63" gradientUnits="userSpaceOnUse">
<stop stop-color="#005D68"/>
<stop offset="0.520833" stop-color="#839793"/>
</linearGradient>
</defs>
</svg>
